Menbere.glyphspackage
{
color = 9;
glyphname = micro;
layers = (
{
layerId = "9E010061-AAF6-435A-AC72-EA6F5DDC7760";
shapes = (
{
closed = 1;
nodes = (
(231.414,-194.922,l),
(231.414,22.187,l),
(244.969,10.055,o),
(279.193,-11,o),
(313.859,-11,cs),
(382.055,-11,o),
(420,16,o),
(443,74,c),
(452,74,l),
(472,0,l),
(591,0,l),
(591,580,l),
(435,580,l),
(435,306,ls),
(435,185,o),
(413,113,o),
(320,113,cs),
(262.417,113,o),
(235.025,150.954,o),
(231.414,222.054,c),
(231,580,l),
(75,580,l),
(74.578,-194.922,l)
);
}
);
width = 600;
},
{
layerId = "C85E24C5-F5D5-436B-96A2-CB17661C75AE";
shapes = (
{
closed = 1;
nodes = (
(185,-194.922,l),
(185,33.75,l),
(210.93,8.784,o),
(241.105,-6,o),
(305,-11,cs),
(349.863,-14.511,o),
(418,18,o),
(448,77,c),
(455,77,l),
(468,0,l),
(552,0,l),
(552,570,l),
(447,570,l),
(447,279,ls),
(447,152,o),
(413,75,o),
(317,75,cs),
(221,75,o),
(185,122,o),
(185,212,cs),
(185,570,l),
(78,570,l),
(77.578,-194.922,l)
);
}
);
width = 600;
},
{
layerId = "953CDB83-177D-4B72-9B41-8425D0D02E2F";
shapes = (
{
closed = 1;
nodes = (
(141.883,-194.922,l),
(141.883,38.814,l),
(174.003,2.127,o),
(218.114,-11,o),
(273,-11,cs),
(368,-11,o),
(427,38,o),
(455,96,c),
(459,96,l),
(468,0,l),
(516,0,l),
(516,563,l),
(457,563,l),
(457,256,ls),
(457,113,o),
(399,41,o),
(280,41,cs),
(190,41,o),
(142,91,o),
(142,200,cs),
(142,563,l),
(80,563,l),
(80.578,-194.922,l)
);
}
);
width = 608;
}
);
unicode = 181;
}
{
color = 9;
glyphname = oslash;
layers = (
{
anchors = (
{
name = top;
pos = (316,580);
}
);
background = {
shapes = (
{
ref = o;
}
);
};
layerId = "9E010061-AAF6-435A-AC72-EA6F5DDC7760";
shapes = (
{
closed = 1;
nodes = (
(198,13,l),
(233,-1,o),
(270,-11,o),
(313,-11,cs),
(476,-11,o),
(583,95,o),
(583,289,cs),
(583,382,o),
(558,455,o),
(514,505,c),
(541,550,l),
(464,604,l),
(437,561,l),
(403,581,o),
(362,590,o),
(316,590,cs),
(147,590,o),
(45,482,o),
(45,289,cs),
(45,194,o),
(73,119,o),
(122,68,c),
(88,16,l),
(166,-39,l)
);
},
{
closed = 1;
nodes = (
(298,110,o),
(287,112,o),
(274,123,c),
(420,365,l),
(429,341,o),
(430,320,o),
(430,289,cs),
(430,175,o),
(393,110,o),
(316,110,cs)
);
},
{
closed = 1;
nodes = (
(201,231,o),
(199,258,o),
(199,289,cs),
(199,411,o),
(236,468,o),
(314,468,cs),
(333,468,o),
(351,463,o),
(365,452,c),
(212,203,l)
);
}
);
vertWidth = 1357.3098;
width = 631;
},
{
anchors = (
{
name = top;
pos = (301,563);
}
);
layerId = "953CDB83-177D-4B72-9B41-8425D0D02E2F";
shapes = (
{
closed = 1;
nodes = (
(155,41,l),
(193,8,o),
(239,-11,o),
(298,-11,cs),
(455,-11,o),
(543,101,o),
(543,284,cs),
(543,369,o),
(520,442,o),
(482,493,c),
(535,564,l),
(492,595,l),
(444,526,l),
(408,558,o),
(360,574,o),
(302,574,cs),
(152,574,o),
(58,464,o),
(58,284,cs),
(58,197,o),
(77,127,o),
(118,77,c),
(61,-2,l),
(103,-31,l)
);
},
{
closed = 1;
nodes = (
(252,39,o),
(213,55,o),
(186,85,c),
(446,443,l),
(472,401,o),
(484,346,o),
(484,284,cs),
(484,138,o),
(425,39,o),
(300,39,cs)
);
},
{
closed = 1;
nodes = (
(128,166,o),
(117,221,o),
(117,284,cs),
(117,432,o),
(181,524,o),
(302,524,cs),
(347,524,o),
(384,510,o),
(411,482,c),
(153,124,l)
);
}
);
vertWidth = 770.3388;
width = 601;
},
{
anchors = (
{
name = top;
pos = (309,570);
}
);
layerId = "C85E24C5-F5D5-436B-96A2-CB17661C75AE";
shapes = (
{
closed = 1;
nodes = (
(180,23,l),
(216,1,o),
(258,-11,o),
(307,-11,cs),
(465,-11,o),
(564,99,o),
(564,285,cs),
(564,375,o),
(541,446,o),
(499,497,c),
(541,558,l),
(477,601,l),
(440,545,l),
(404,566,o),
(358,581,o),
(310,581,cs),
(151,581,o),
(52,474,o),
(52,285,cs),
(52,195,o),
(77,123,o),
(122,71,c),
(77,7,l),
(139,-35,l)
);
},
{
closed = 1;
nodes = (
(278,75,o),
(251,82,o),
(231,99,c),
(437,407,l),
(451,375,o),
(459,333,o),
(459,285,cs),
(459,157,o),
(414,75,o),
(309,75,cs)
);
},
{
closed = 1;
nodes = (
(165,194,o),
(159,235,o),
(159,285,cs),
(159,419,o),
(205,496,o),
(308,496,cs),
(340,496,o),
(369,487,o),
(389,469,c),
(183,160,l)
);
}
);
vertWidth = 207.6228;
width = 617;
}
);
note = oslash;
unicode = 248;
}
{
color = 4;
glyphname = Ohorn;
layers = (
{
anchors = (
{
name = bottom;
pos = (405,0);
},
{
name = center;
pos = (405,380);
},
{
name = ogonek;
pos = (491,12);
},
{
name = top;
pos = (405,761);
},
{
name = topleft;
pos = (23,761);
},
{
name = topright;
pos = (827.063,829);
}
);
layerId = "9E010061-AAF6-435A-AC72-EA6F5DDC7760";
shapes = (
{
closed = 1;
nodes = (
(638,-11,o),
(750,139,o),
(750,379,cs),
(750,621,o),
(639,768,o),
(405,768,cs),
(158,768,o),
(59,608,o),
(59,380,cs),
(59,144,o),
(167,-11,o),
(404,-11,cs)
);
},
{
closed = 1;
nodes = (
(279,123,o),
(225,219,o),
(225,379,cs),
(225,541,o),
(279,637,o),
(405,637,cs),
(532,637,o),
(583,541,o),
(583,379,cs),
(583,216,o),
(533,123,o),
(404,123,cs)
);
},
{
closed = 1;
nodes = (
(683.012,828.909,l),
(703.012,779.909,o),
(682.759,706.909,o),
(590.012,716.909,c),
(609.712,636.902,l),
(755.95,637,o),
(807.012,750.909,o),
(787.012,828.909,c)
);
}
);
width = 811;
},
{
anchors = (
{
name = bottom;
pos = (398,0);
},
{
name = center;
pos = (398,380);
},
{
name = ogonek;
pos = (491,12);
},
{
name = top;
pos = (398,761);
},
{
name = topleft;
pos = (23,761);
},
{
name = topright;
pos = (787.148,867.164);
}
);
layerId = "C85E24C5-F5D5-436B-96A2-CB17661C75AE";
shapes = (
{
closed = 1;
nodes = (
(619,-11,o),
(734,141,o),
(734,379,cs),
(734,625,o),
(615,768,o),
(399,768,cs),
(174,768,o),
(61,619,o),
(61,380,cs),
(61,148,o),
(167,-11,o),
(398,-11,cs)
);
},
{
closed = 1;
nodes = (
(227,80,o),
(174,220,o),
(174,379,cs),
(174,566,o),
(246,677,o),
(399,677,cs),
(554,677,o),
(622,565,o),
(622,379,cs),
(622,197,o),
(554,80,o),
(398,80,cs)
);
},
{
closed = 1;
nodes = (
(675.282,867.073,l),
(695.282,818.073,o),
(675.282,726.145,o),
(570.097,726.145,c),
(569.797,675.066,l),
(716.036,675.164,o),
(767.097,789.073,o),
(747.097,867.073,c)
);
}
);
width = 796;
},
{
anchors = (
{
name = bottom;
pos = (391,0);
},
{
name = center;
pos = (390,379);
},
{
name = ogonek;
pos = (491,12);
},
{
name = top;
pos = (391,761);
},
{
name = topleft;
pos = (23,761);
},
{
name = topright;
pos = (748.062,917.207);
}
);
layerId = "953CDB83-177D-4B72-9B41-8425D0D02E2F";
shapes = (
{
closed = 1;
nodes = (
(608,-11,o),
(716,149,o),
(716,379,cs),
(716,625,o),
(599,768,o),
(393,768,cs),
(178,768,o),
(64,619,o),
(64,380,cs),
(64,144,o),
(172,-11,o),
(390,-11,cs)
);
},
{
closed = 1;
nodes = (
(198,44,o),
(127,197,o),
(127,379,cs),
(127,585,o),
(214,715,o),
(393,715,cs),
(566,715,o),
(653,591,o),
(653,379,cs),
(653,174,o),
(566,44,o),
(390,44,cs)
);
},
{
closed = 1;
nodes = (
(636.196,901.116,l),
(656.196,852.116,o),
(656.196,750.188,o),
(531.011,740.188,c),
(530.711,709.109,l),
(676.95,709.207,o),
(705.011,823.116,o),
(685.011,901.116,c)
);
}
);
width = 781;
}
);
unicode = 416;
}
{
color = 4;
glyphname = ohorn;
layers = (
{
anchors = (
{
name = bottom;
pos = (317,0);
},
{
name = center;
pos = (317,290);
},
{
name = ogonek;
pos = (408.32,12);
},
{
name = top;
pos = (317,580);
},
{
name = topright;
pos = (666.891,667.188);
}
);
layerId = "9E010061-AAF6-435A-AC72-EA6F5DDC7760";
shapes = (
{
closed = 1;
nodes = (
(488,-11,o),
(584,104,o),
(584,289,cs),
(584,486,o),
(470,590,o),
(317,590,cs),
(149,590,o),
(46,481,o),
(46,290,cs),
(46,96,o),
(158,-11,o),
(314,-11,cs)
);
},
{
closed = 1;
nodes = (
(236,115,o),
(204,183,o),
(204,289,cs),
(204,407,o),
(237,464,o),
(315,464,cs),
(393,464,o),
(427,405,o),
(427,289,cs),
(427,175,o),
(394,115,o),
(317,115,cs)
);
},
{
closed = 1;
nodes = (
(522.84,667.096,l),
(542.84,618.096,o),
(512.587,555.096,o),
(449.84,555.096,c),
(449.54,475.09,l),
(595.778,475.188,o),
(646.84,589.096,o),
(626.84,667.096,c)
);
}
);
width = 630;
},
{
anchors = (
{
name = bottom;
pos = (309,0);
},
{
name = center;
pos = (309,290);
},
{
name = ogonek;
pos = (399.32,12);
},
{
name = top;
pos = (309,580);
},
{
name = topright;
pos = (646.102,695.922);
}
);
layerId = "C85E24C5-F5D5-436B-96A2-CB17661C75AE";
shapes = (
{
closed = 1;
nodes = (
(464,-11,o),
(564,95,o),
(564,285,cs),
(564,473,o),
(463,581,o),
(310,581,cs),
(151,581,o),
(52,472,o),
(52,287,cs),
(52,97,o),
(158,-11,o),
(307,-11,cs)
);
},
{
closed = 1;
nodes = (
(190,77,o),
(161,181,o),
(161,285,cs),
(161,419,o),
(205,494,o),
(308,494,cs),
(415,494,o),
(457,409,o),
(457,285,cs),
(457,157,o),
(414,77,o),
(309,77,cs)
);
},
{
closed = 1;
nodes = (
(534.235,695.831,l),
(554.235,646.831,o),
(534.235,554.902,o),
(429.051,554.902,c),
(428.751,503.824,l),
(574.99,503.922,o),
(626.051,617.831,o),
(606.051,695.831,c)
);
}
);
width = 616;
},
{
anchors = (
{
name = bottom;
pos = (301,0);
},
{
name = center;
pos = (301,290);
},
{
name = ogonek;
pos = (369.32,12);
},
{
name = top;
pos = (301,580);
},
{
name = topright;
pos = (634.109,718.973);
}
);
layerId = "953CDB83-177D-4B72-9B41-8425D0D02E2F";
shapes = (
{
closed = 1;
nodes = (
(457,-11,o),
(543,105,o),
(543,284,cs),
(543,464,o),
(455,574,o),
(302,574,cs),
(151,574,o),
(58,464,o),
(58,284,cs),
(58,104,o),
(152,-11,o),
(298,-11,cs)
);
},
{
closed = 1;
nodes = (
(163,41,o),
(119,156,o),
(119,284,cs),
(119,432,o),
(181,522,o),
(302,522,cs),
(425,522,o),
(481,424,o),
(481,284,cs),
(481,138,o),
(425,41,o),
(300,41,cs)
);
},
{
closed = 1;
nodes = (
(522.243,702.882,l),
(542.243,653.882,o),
(542.243,551.954,o),
(417.058,541.954,c),
(416.758,510.875,l),
(562.997,510.973,o),
(591.058,624.882,o),
(571.058,702.882,c)
);
}
);
width = 601;
}
);
unicode = 417;
}
{
color = 4;
glyphname = Uhorn;
layers = (
{
anchors = (
{
name = bottom;
pos = (385,0);
},
{
name = ogonek;
pos = (692,12);
},
{
name = top;
pos = (385,761);
},
{
name = topright;
pos = (837.609,868.273);
}
);
layerId = "9E010061-AAF6-435A-AC72-EA6F5DDC7760";
shapes = (
{
closed = 1;
nodes = (
(604,-11,o),
(684,128,o),
(684,268,cs),
(684,757,l),
(526,757,l),
(526,293,ls),
(526,184,o),
(491,123,o),
(385,123,cs),
(291,123,o),
(244,168,o),
(244,292,cs),
(244,757,l),
(86,757,l),
(86,269,ls),
(86,101,o),
(188,-11,o),
(380,-11,cs)
);
},
{
closed = 1;
nodes = (
(693.559,868.182,l),
(713.559,819.182,o),
(683.306,756.182,o),
(620.559,756.182,c),
(620.259,676.176,l),
(766.497,676.273,o),
(817.559,790.182,o),
(797.559,868.182,c)
);
}
);
width = 770;
},
{
anchors = (
{
name = bottom;
pos = (375,0);
},
{
name = ogonek;
pos = (675,12);
},
{
name = top;
pos = (375,761);
},
{
name = topright;
pos = (844,898);
}
);
layerId = "C85E24C5-F5D5-436B-96A2-CB17661C75AE";
shapes = (
{
closed = 1;
nodes = (
(571,-11,o),
(658,115,o),
(658,268,cs),
(658,757,l),
(552,757,l),
(552,273,ls),
(552,155,o),
(498,80,o),
(375,80,cs),
(257,80,o),
(196,147,o),
(196,273,cs),
(196,757,l),
(89,757,l),
(89,269,ls),
(89,100,o),
(186,-11,o),
(371,-11,cs)
);
},
{
closed = 1;
nodes = (
(732.134,897.909,l),
(752.134,848.909,o),
(732.134,756.981,o),
(626.949,756.981,c),
(626.649,705.902,l),
(772.888,706,o),
(823.949,819.909,o),
(803.949,897.909,c)
);
}
);
width = 749;
},
{
anchors = (
{
name = bottom;
pos = (368,0);
},
{
name = ogonek;
pos = (661,12);
},
{
name = top;
pos = (368,761);
},
{
name = topright;
pos = (830.148,932.153);
}
);
layerId = "953CDB83-177D-4B72-9B41-8425D0D02E2F";
shapes = (
{
closed = 1;
nodes = (
(537,-11,o),
(640,95,o),
(640,268,cs),
(640,757,l),
(580,757,l),
(580,263,ls),
(580,136,o),
(513,44,o),
(368,44,cs),
(230,44,o),
(155,122,o),
(155,268,cs),
(155,757,l),
(94,757,l),
(94,269,ls),
(94,95,o),
(188,-11,o),
(365,-11,cs)
);
},
{
closed = 1;
nodes = (
(718.282,916.062,l),
(738.282,867.062,o),
(738.282,765.134,o),
(613.097,755.134,c),
(612.797,724.055,l),
(759.036,724.153,o),
(787.097,838.062,o),
(767.097,916.062,c)
);
}
);
width = 734;
}
);
unicode = 431;
}
{
color = 4;
glyphname = clickdental;
layers = (
{
layerId = "9E010061-AAF6-435A-AC72-EA6F5DDC7760";
shapes = (
{
closed = 1;
nodes = (
(162,-241,l),
(162,802,l),
(52,802,l),
(52,-241,l)
);
}
);
width = 214;
},
{
layerId = "C85E24C5-F5D5-436B-96A2-CB17661C75AE";
shapes = (
{
closed = 1;
nodes = (
(141,-252,l),
(141,806,l),
(59,806,l),
(59,-252,l)
);
}
);
width = 200;
},
{
layerId = "953CDB83-177D-4B72-9B41-8425D0D02E2F";
shapes = (
{
closed = 1;
nodes = (
(127,-261,l),
(127,806,l),
(76,806,l),
(76,-261,l)
);
}
);
width = 203;
}
);
metricLeft = "=I+20";
metricRight = "=|";
unicode = 448;
}
{
color = 4;
glyphname = clicklateral;
layers = (
{
layerId = "9E010061-AAF6-435A-AC72-EA6F5DDC7760";
shapes = (
{
closed = 1;
nodes = (
(162,-241,l),
(162,802,l),
(52,802,l),
(52,-241,l)
);
},
{
closed = 1;
nodes = (
(353,-241,l),
(353,802,l),
(243,802,l),
(243,-241,l)
);
}
);
width = 405;
},
{
layerId = "C85E24C5-F5D5-436B-96A2-CB17661C75AE";
shapes = (
{
closed = 1;
nodes = (
(141,-252,l),
(141,806,l),
(59,806,l),
(59,-252,l)
);
},
{
closed = 1;
nodes = (
(326,-252,l),
(326,806,l),
(244,806,l),
(244,-252,l)
);
}
);
width = 385;
},
{
layerId = "953CDB83-177D-4B72-9B41-8425D0D02E2F";
shapes = (
{
closed = 1;
nodes = (
(127,-261,l),
(127,806,l),
(76,806,l),
(76,-261,l)
);
},
{
closed = 1;
nodes = (
(313,-261,l),
(313,806,l),
(262,806,l),
(262,-261,l)
);
}
);
width = 389;
}
);
metricLeft = "=I+20";
metricRight = "=|";
unicode = 449;
}
{
color = 5;
glyphname = clickalveolar;
layers = (
{
layerId = "9E010061-AAF6-435A-AC72-EA6F5DDC7760";
shapes = (
{
closed = 1;
nodes = (
(358,-241,l),
(358,802,l),
(248,802,l),
(248,-241,l)
);
},
{
closed = 1;
nodes = (
(536,419,l),
(536,530,l),
(42,530,l),
(42,419,l)
);
},
{
closed = 1;
nodes = (
(536,217,l),
(536,329,l),
(42,329,l),
(42,217,l)
);
}
);
width = 578;
},
{
layerId = "C85E24C5-F5D5-436B-96A2-CB17661C75AE";
shapes = (
{
closed = 1;
nodes = (
(330,-252,l),
(330,806,l),
(248,806,l),
(248,-252,l)
);
},
{
closed = 1;
nodes = (
(526,437,l),
(526,518,l),
(52,518,l),
(52,437,l)
);
},
{
closed = 1;
nodes = (
(526,229,l),
(526,309,l),
(52,309,l),
(52,229,l)
);
}
);
width = 578;
},
{
layerId = "953CDB83-177D-4B72-9B41-8425D0D02E2F";
shapes = (
{
closed = 1;
nodes = (
(310,-261,l),
(310,806,l),
(259,806,l),
(259,-261,l)
);
},
{
closed = 1;
nodes = (
(521,455,l),
(521,507,l),
(58,507,l),
(58,455,l)
);
},
{
closed = 1;
nodes = (
(521,242,l),
(521,291,l),
(58,291,l),
(58,242,l)
);
}
);
width = 579;
}
);
metricLeft = equal;
metricRight = "=|";
unicode = 450;
}
{
color = 4;
glyphname = Oogonek;
layers = (
{
anchors = (
{
name = bottom;
pos = (405,0);
},
{
name = center;
pos = (405,380);
},
{
name = ogonek;
pos = (491,12);
},
{
name = top;
pos = (405,761);
},
{
name = topleft;
pos = (23,761);
},
{
name = topright;
pos = (609.063,637);
}
);
layerId = "9E010061-AAF6-435A-AC72-EA6F5DDC7760";
shapes = (
{
closed = 1;
nodes = (
(446,-270,o),
(471,-265,o),
(494,-258,c),
(494,-166,l),
(470,-172,o),
(460,-175,o),
(432,-175,cs),
(405,-175,o),
(385,-159,o),
(385,-129,cs),
(385,-89.309,o),
(410.9,-53.19,o),
(459.323,-7.983,c),
(655.683,14.31,o),
(750,158.76,o),
(750,379,cs),
(750,621,o),
(639,768,o),
(405,768,cs),
(158,768,o),
(59,608,o),
(59,380,cs),
(59,168.312,o),
(145.894,21.795,o),
(334.838,-6.146,cs),
(341.662,-7.155,o),
(348.619,-8.01,o),
(355.71,-8.707,c),
(309.047,-47.813,o),
(275,-95.859,o),
(275,-147,cs),
(275,-220,o),
(326,-270,o),
(410,-270,cs)
);
},
{
closed = 1;
nodes = (
(279,123,o),
(225,219,o),
(225,379,cs),
(225,541,o),
(279,637,o),
(405,637,cs),
(532,637,o),
(583,541,o),
(583,379,cs),
(583,216,o),
(533,123,o),
(404,123,cs)
);
}
);
width = 811;
},
{
anchors = (
{
name = bottom;
pos = (398,0);
},
{
name = center;
pos = (398,380);
},
{
name = ogonek;
pos = (491,12);
},
{
name = top;
pos = (398,761);
},
{
name = topleft;
pos = (23,761);
},
{
name = topright;
pos = (569.148,675.164);
}
);
layerId = "C85E24C5-F5D5-436B-96A2-CB17661C75AE";
shapes = (
{
closed = 1;
nodes = (
(467,-256,o),
(486,-251,o),
(507,-245,c),
(507,-178,l),
(500,-179,o),
(472,-186,o),
(453,-186,cs),
(419,-186,o),
(400,-167,o),
(400,-134,cs),
(400,-86.285,o),
(425.603,-50.897,o),
(476.808,-3.828,c),
(646.271,28.858,o),
(734,171.126,o),
(734,379,cs),
(734,625,o),
(615,768,o),
(399,768,cs),
(174,768,o),
(61,619,o),
(61,380,cs),
(61,157.942,o),
(158.11,2.761,o),
(368.991,-10.131,cs),
(375.627,-10.537,o),
(382.376,-10.801,o),
(389.238,-10.923,c),
(348.366,-48.415,o),
(316,-95.986,o),
(316,-146,cs),
(316,-214,o),
(356,-256,o),
(434,-256,cs)
);
},
{
closed = 1;
nodes = (
(227,80,o),
(174,220,o),
(174,379,cs),
(174,566,o),
(246,677,o),
(399,677,cs),
(554,677,o),
(622,565,o),
(622,379,cs),
(622,197,o),
(554,80,o),
(398,80,cs)
);
}
);
width = 796;
},
{
anchors = (
{
name = bottom;
pos = (391,0);
},
{
name = center;
pos = (390,379);
},
{
name = ogonek;
pos = (491,12);
},
{
name = top;
pos = (391,761);
},
{
name = topleft;
pos = (23,761);
},
{
name = topright;
pos = (530.711,709.109);
}
);
layerId = "953CDB83-177D-4B72-9B41-8425D0D02E2F";
shapes = (
{
closed = 1;
nodes = (
(493,-252,o),
(512,-247,o),
(528,-242,c),
(528,-197,l),
(517,-201,o),
(498,-205,o),
(475,-205,cs),
(433,-205,o),
(415,-184,o),
(415,-144,cs),
(415,-89,o),
(447,-45,o),
(486,0,c),
(661.331,46.994,o),
(716,229.48,o),
(716,379,cs),
(716,625,o),
(599,768,o),
(393,768,cs),
(178,768,o),
(64,619,o),
(64,380,cs),
(64,144,o),
(172,-11,o),
(390,-11,cs),
(402.042,-11,o),
(413.749,-10.512,o),
(425.12,-9.551,c),
(385.17,-55.568,o),
(361,-102.784,o),
(361,-150,cs),
(361,-214,o),
(401,-252,o),
(466,-252,cs)
);
},
{
closed = 1;
nodes = (
(198,44,o),
(127,197,o),
(127,379,cs),
(127,585,o),
(214,715,o),
(393,715,cs),
(566,715,o),
(653,591,o),
(653,379,cs),
(653,174,o),
(566,44,o),
(390,44,cs)
);
}
);
width = 781;
}
);
unicode = 490;
}
{
color = 5;
glyphname = bilabialclick;
layers = (
{
anchors = (
{
name = "#exit";
pos = (521,303);
},
{
name = bottom;
pos = (405,0);
},
{
name = center;
pos = (405,380);
},
{
name = ogonek;
pos = (491,12);
},
{
name = top;
pos = (405,761);
},
{
name = topleft;
pos = (23,761);
},
{
name = topright;
pos = (609.063,637);
}
);
layerId = "9E010061-AAF6-435A-AC72-EA6F5DDC7760";
shapes = (
{
closed = 1;
nodes = (
(638,-11,o),
(750,139,o),
(750,379,cs),
(750,621,o),
(639,768,o),
(405,768,cs),
(158,768,o),
(59,608,o),
(59,380,cs),
(59,144,o),
(167,-11,o),
(404,-11,cs)
);
},
{
closed = 1;
nodes = (
(279,123,o),
(225,219,o),
(225,379,cs),
(225,541,o),
(279,637,o),
(405,637,cs),
(532,637,o),
(583,541,o),
(583,379,cs),
(583,216,o),
(533,123,o),
(404,123,cs)
);
},
{
closed = 1;
nodes = (
(458,289,o),
(499,315,o),
(499,380,cs),
(499,445,o),
(458,467,o),
(410,467,cs),
(357,467,o),
(318,445,o),
(318,380,cs),
(318,316,o),
(357,289,o),
(410,289,cs)
);
}
);
width = 811;
},
{
anchors = (
{
name = "#exit";
pos = (499,318);
},
{
name = bottom;
pos = (398,0);
},
{
name = center;
pos = (398,380);
},
{
name = ogonek;
pos = (491,12);
},
{
name = top;
pos = (398,761);
},
{
name = topleft;
pos = (23,761);
},
{
name = topright;
pos = (569.148,675.164);
}
);
layerId = "C85E24C5-F5D5-436B-96A2-CB17661C75AE";
shapes = (
{
closed = 1;
nodes = (
(619,-11,o),
(734,141,o),
(734,379,cs),
(734,625,o),
(615,768,o),
(399,768,cs),
(174,768,o),
(61,619,o),
(61,380,cs),
(61,148,o),
(167,-11,o),
(398,-11,cs)
);
},
{
closed = 1;
nodes = (
(227,80,o),
(174,220,o),
(174,379,cs),
(174,566,o),
(246,677,o),
(399,677,cs),
(554,677,o),
(622,565,o),
(622,379,cs),
(622,197,o),
(554,80,o),
(398,80,cs)
);
},
{
closed = 1;
nodes = (
(439,302,o),
(473,326,o),
(473,380,cs),
(473,435,o),
(439,456,o),
(401,456,cs),
(362,456,o),
(330,435,o),
(330,380,cs),
(330,326,o),
(362,302,o),
(401,302,cs)
);
}
);
width = 796;
},
{
anchors = (
{
name = "#exit";
pos = (468,336);
},
{
name = bottom;
pos = (391,0);
},
{
name = center;
pos = (390,379);
},
{
name = ogonek;
pos = (491,12);
},
{
name = top;
pos = (391,761);
},
{
name = topleft;
pos = (23,761);
},
{
name = topright;
pos = (530.711,709.109);
}
);
layerId = "953CDB83-177D-4B72-9B41-8425D0D02E2F";
shapes = (
{
closed = 1;
nodes = (
(608,-11,o),
(716,149,o),
(716,379,cs),
(716,625,o),
(599,768,o),
(393,768,cs),
(178,768,o),
(64,619,o),
(64,380,cs),
(64,144,o),
(172,-11,o),
(390,-11,cs)
);
},
{
closed = 1;
nodes = (
(198,44,o),
(127,197,o),
(127,379,cs),
(127,585,o),
(214,715,o),
(393,715,cs),
(566,715,o),
(653,591,o),
(653,379,cs),
(653,174,o),
(566,44,o),
(390,44,cs)
);
},
{
closed = 1;
nodes = (
(419,324,o),
(437,343,o),
(437,380,cs),
(437,415,o),
(419,435,o),
(387,435,cs),
(359,435,o),
(340,415,o),
(340,380,cs),
(340,343,o),
(359,324,o),
(387,324,cs)
);
}
);
width = 781;
}
);
unicode = 664;
}
{
glyphname = verticallinemod;
layers = (
{
layerId = "953CDB83-177D-4B72-9B41-8425D0D02E2F";
shapes = (
{
closed = 1;
nodes = (
(100,522,l),
(158,522,l),
(158,730,l),
(100,730,l)
);
}
);
width = 258;
},
{
layerId = "C85E24C5-F5D5-436B-96A2-CB17661C75AE";
shapes = (
{
closed = 1;
nodes = (
(101,430,l),
(204,430,l),
(204,730,l),
(101,730,l)
);
}
);
width = 306;
},
{
layerId = "9E010061-AAF6-435A-AC72-EA6F5DDC7760";
shapes = (
{
closed = 1;
nodes = (
(100,330,l),
(249,330,l),
(249,730,l),
(100,730,l)
);
}
);
width = 349;
}
);
unicode = 712;
}
{
glyphname = hungarumlaut;
layers = (
{
layerId = "9E010061-AAF6-435A-AC72-EA6F5DDC7760";
shapes = (
{
closed = 1;
nodes = (
(130,698,l),
(172,734,o),
(272,816,o),
(309,870,c),
(309,882,l),
(153,882,l),
(131,844,o),
(81,762,o),
(46,712,c),
(46,698,l)
);
},
{
closed = 1;
nodes = (
(348,698,l),
(377,724,o),
(497,820,o),
(529,870,c),
(529,882,l),
(373,882,l),
(347,833,o),
(286,743,o),
(264,712,c),
(264,698,l)
);
}
);
vertWidth = 1357.3098;
width = 575;
},
{
layerId = "953CDB83-177D-4B72-9B41-8425D0D02E2F";
shapes = (
{
closed = 1;
nodes = (
(85,698,l),
(133,747,o),
(200,833,o),
(227,871,c),
(227,882,l),
(160,882,l),
(130,826,o),
(82,754,o),
(46,708,c),
(46,698,l)
);
},
{
closed = 1;
nodes = (
(275,698,l),
(320,743,o),
(375,811,o),
(419,871,c),
(419,882,l),
(352,882,l),
(321,826,o),
(275,754,o),
(239,708,c),
(239,698,l)
);
}
);
vertWidth = 770.3388;
width = 464;
},
{
layerId = "C85E24C5-F5D5-436B-96A2-CB17661C75AE";
shapes = (
{
closed = 1;
nodes = (
(106,698,l),
(163,750,o),
(236,833,o),
(262,870,c),
(262,882,l),
(148,882,l),
(123,836,o),
(73,750,o),
(46,711,c),
(46,698,l)
);
},
{
closed = 1;
nodes = (
(309,698,l),
(378,762,o),
(432,824,o),
(464,870,c),
(464,882,l),
(352,882,l),
(325,827,o),
(280,756,o),
(250,711,c),
(250,698,l)
);
}
);
vertWidth = 207.6228;
width = 509;
}
);
note = hungarumlaut;
unicode = 733;
}
{
glyphname = dotaccentcomb;
layers = (
{
anchors = (
{
name = _top;
pos = (132,579);
},
{
name = top;
pos = (132,869);
}
);
layerId = "9E010061-AAF6-435A-AC72-EA6F5DDC7760";
shapes = (
{
closed = 1;
nodes = (
(178,708,o),
(217,729,o),
(217,787,cs),
(217,849,o),
(178,868,o),
(133,868,cs),
(84,868,o),
(46,849,o),
(46,787,cs),
(46,729,o),
(84,708,o),
(133,708,cs)
);
}
);
vertWidth = 1357.3098;
width = 262;
},
{
anchors = (
{
name = _top;
pos = (88,563);
},
{
name = top;
pos = (88,807);
}
);
layerId = "953CDB83-177D-4B72-9B41-8425D0D02E2F";
shapes = (
{
closed = 1;
nodes = (
(117,694,o),
(130,712,o),
(130,741,cs),
(130,773,o),
(117,790,o),
(88,790,cs),
(61,790,o),
(46,773,o),
(46,741,cs),
(46,712,o),
(61,694,o),
(88,694,cs)
);
}
);
vertWidth = 770.3388;
width = 176;
},
{
anchors = (
{
name = _top;
pos = (107,570);
},
{
name = top;
pos = (107,831);
}
);
layerId = "C85E24C5-F5D5-436B-96A2-CB17661C75AE";
shapes = (
{
closed = 1;
nodes = (
(142,690,o),
(168,711,o),
(168,754,cs),
(168,800,o),
(142,821,o),
(108,821,cs),
(73,821,o),
(46,800,o),
(46,754,cs),
(46,711,o),
(73,690,o),
(108,690,cs)
);
}
);
vertWidth = 207.6228;
width = 213;
}
);
note = dotaccent;
unicode = 775;
userData = {
KernOnSpecialSpacing = {
L = NoKerning;
R = NoKerning;
};
};
}
{
glyphname = hookabovecomb;
layers = (
{
anchors = (
{
name = _top;
pos = (157,579);
},
{
name = top;
pos = (157,886);
}
);
layerId = "9E010061-AAF6-435A-AC72-EA6F5DDC7760";
shapes = (
{
closed = 1;
nodes = (
(86.949,900.909,o),
(60.949,895.909,o),
(41.949,890.909,c),
(41.949,793.909,l),
(62.949,799.909,o),
(94.949,803.909,o),
(118.949,803.909,cs),
(168.949,803.909,o),
(187.949,794.909,o),
(187.949,765.909,cs),
(187.949,736.909,o),
(159.949,714.909,o),
(73.949,703.909,c),
(103.944,633.751,l),
(245.949,651.446,o),
(291.949,704.909,o),
(291.949,772.909,cs),
(291.949,852.909,o),
(226.949,900.909,o),
(118.949,900.909,cs)
);
}
);
width = 300;
},
{
anchors = (
{
name = _top;
pos = (147,570);
},
{
name = top;
pos = (147,854);
}
);
layerId = "C85E24C5-F5D5-436B-96A2-CB17661C75AE";
shapes = (
{
closed = 1;
nodes = (
(71.181,853.757,o),
(46.181,852.757,o),
(34.181,847.757,c),
(34.181,774.757,l),
(49.181,777.757,o),
(74.181,781.757,o),
(117.181,781.757,cs),
(149.181,781.757,o),
(178.181,775.757,o),
(178.181,738.757,cs),
(178.181,696.757,o),
(133.181,683.757,o),
(71.181,677.757,c),
(97.181,622.757,l),
(218.181,631.757,o),
(259.181,690.086,o),
(259.181,736.086,cs),
(259.181,815.086,o),
(207.181,853.757,o),
(93.181,853.757,cs)
);
}
);
width = 300;
},
{
anchors = (
{
name = _top;
pos = (126,563);
},
{
name = top;
pos = (126,836);
}
);
layerId = "953CDB83-177D-4B72-9B41-8425D0D02E2F";
shapes = (
{
closed = 1;
nodes = (
(56.84,835.735,o),
(36.84,834.735,o),
(21.84,830.735,c),
(21.84,783.735,l),
(38.84,789.735,o),
(58.84,789.735,o),
(83.84,789.735,cs),
(141.84,789.735,o),
(179.84,767.735,o),
(179.84,722.735,cs),
(179.84,678.735,o),
(130.84,657.735,o),
(60.84,655.735,c),
(73.362,616.122,l),
(183.84,620.122,o),
(229.84,669.735,o),
(229.84,720.735,cs),
(229.84,789.735,o),
(173.84,835.735,o),
(81.84,835.735,cs)
);
}
);
width = 237;
}
);
unicode = 777;
}
{
glyphname = horncomb;
layers = (
{
anchors = (
{
name = _topright;
pos = (84,579);
},
{
name = topright;
pos = (302,771);
}
);
layerId = "9E010061-AAF6-435A-AC72-EA6F5DDC7760";
shapes = (
{
closed = 1;
nodes = (
(157.949,770.909,l),
(177.949,721.909,o),
(147.696,658.909,o),
(84.949,658.909,c),
(84.649,578.902,l),
(230.888,579,o),
(281.949,692.909,o),
(261.949,770.909,c)
);
}
);
width = 300;
},
{
anchors = (
{
name = _topright;
pos = (84,570);
},
{
name = topright;
pos = (302,762);
}
);
layerId = "C85E24C5-F5D5-436B-96A2-CB17661C75AE";
shapes = (
{
closed = 1;
nodes = (
(190.134,761.909,l),
(210.134,712.909,o),
(190.134,620.981,o),
(84.949,620.981,c),
(84.649,569.902,l),
(230.888,570,o),
(281.949,683.909,o),
(261.949,761.909,c)
);
}
);
width = 300;
},
{
anchors = (
{
name = _topright;
pos = (84.649,562.902);
},
{
name = topright;
pos = (302,771);
}
);
layerId = "953CDB83-177D-4B72-9B41-8425D0D02E2F";
shapes = (
{
closed = 1;
nodes = (
(190.134,754.909,l),
(210.134,705.909,o),
(210.134,603.981,o),
(84.949,593.981,c),
(84.649,562.902,l),
(230.888,563,o),
(258.949,676.909,o),
(238.949,754.909,c)
);
}
);
width = 237;
}
);
unicode = 795;
}
{
glyphname = cedillacomb;
layers = (
{
anchors = (
{
name = _bottom;
pos = (112,0);
},
{
name = bottom;
pos = (112,-275);
}
);
layerId = "9E010061-AAF6-435A-AC72-EA6F5DDC7760";
shapes = (
{
closed = 1;
nodes = (
(172,-285,o),
(237,-237,o),
(237,-157,cs),
(237,-89,o),
(191,-58,o),
(140,-43,c),
(162,0,l),
(62,0,l),
(19,-88,l),
(105,-99,o),
(133,-121,o),
(133,-150,cs),
(133,-179,o),
(114,-188,o),
(64,-188,cs),
(40,-188,o),
(8,-184,o),
(-13,-178,c),
(-13,-275,l),
(6,-280,o),
(32,-285,o),
(64,-285,cs)
);
}
);
vertWidth = 1357.3098;
width = 241;
},
{
anchors = (
{
name = _bottom;
pos = (118,0);
},
{
name = bottom;
pos = (118,-275);
}
);
layerId = "953CDB83-177D-4B72-9B41-8425D0D02E2F";
shapes = (
{
closed = 1;
nodes = (
(167,-279,o),
(223,-233,o),
(223,-164,cs),
(223,-113,o),
(177,-76,o),
(113,-68,c),
(141,0,l),
(98,0,l),
(54,-99,l),
(124,-101,o),
(173,-122,o),
(173,-166,cs),
(173,-211,o),
(135,-233,o),
(77,-233,cs),
(52,-233,o),
(32,-233,o),
(15,-227,c),
(15,-274,l),
(30,-278,o),
(50,-279,o),
(75,-279,cs)
);
}
);
vertWidth = 770.3388;
width = 237;
},
{
anchors = (
{
name = _bottom;
pos = (127,0);
},
{
name = bottom;
pos = (127,-275);
}
);
layerId = "C85E24C5-F5D5-436B-96A2-CB17661C75AE";
shapes = (
{
closed = 1;
nodes = (
(185,-283,o),
(237,-235,o),
(237,-156,cs),
(237,-110,o),
(196,-67,o),
(141,-58,c),
(168,0,l),
(101,0,l),
(51,-96,l),
(113,-102,o),
(156,-119,o),
(156,-161,cs),
(156,-198,o),
(127,-211,o),
(75,-211,cs),
(52,-211,o),
(27,-207,o),
(12,-204,c),
(12,-277,l),
(24,-282,o),
(49,-283,o),
(71,-283,cs)
);
}
);
vertWidth = 207.6228;
width = 252;
}
);
note = cedilla;
unicode = 807;
userData = {
KernOnSpecialSpacing = {
L = NoKerning;
R = NoKerning;
};
};
}
{
color = 4;
glyphname = "kxwa-ethiopic";
layers = (
{
layerId = "9E010061-AAF6-435A-AC72-EA6F5DDC7760";
shapes = (
{
closed = 1;
nodes = (
(440,36,l),
(422,121,o),
(412,210,o),
(412,286,cs),
(412,466,o),
(460,550,o),
(566,550,cs),
(643,550,o),
(677,505,o),
(677,409,cs),
(677,329,o),
(657,254,o),
(657,165,cs),
(657,104,o),
(667,46,o),
(686,-4,c),
(839,38,l),
(826,65,o),
(815,127,o),
(815,172,cs),
(815,215,o),
(821,258,o),
(826,300,c),
(856,301,o),
(873,302,o),
(890,307,c),
(914,211,o),
(982,162,o),
(1088,162,cs),
(1225,162,o),
(1325,249,o),
(1325,372,cs),
(1325,480,o),
(1244,556,o),
(1129,556,cs),
(1046,556,o),
(994,518,o),
(946,484,cs),
(910,458,o),
(894,436,o),
(835,430,c),
(830,601,o),
(733,679,o),
(574,679,cs),
(501,679,o),
(439,663,o),
(389,627,c),
(380,633,o),
(374,642,o),
(374,655,cs),
(374,678,o),
(387,704,o),
(387,736,cs),
(387,747,o),
(385,761,o),
(383,774,c),
(403,776,o),
(421,778,o),
(439,778,cs),
(466,778,o),
(499,772,o),
(531,764,c),
(570,888,l),
(535,898,o),
(500,904,o),
(468,904,cs),
(379,904,o),
(279,877,o),
(191,877,cs),
(160,877,o),
(120,883,o),
(69,897,c),
(30,772,l),
(84,758,o),
(129,750,o),
(170,750,cs),
(185,750,o),
(202,751,o),
(218,753,c),
(230,691,o),
(210,682,o),
(210,622,cs),
(210,563,o),
(238,527,o),
(295,510,c),
(268,449,o),
(254,370,o),
(254,277,cs),
(254,199,o),
(266,96,o),
(285,-5,c)
);
},
{
closed = 1;
nodes = (
(1051,292,o),
(1028,316,o),
(1018,372,c),
(1064,408,o),
(1089,420,o),
(1116,420,cs),
(1150,420,o),
(1172,398,o),
(1172,361,cs),
(1172,317,o),
(1145,292,o),
(1096,292,cs)
);
}
);
width = 1368;
},
{
layerId = "C85E24C5-F5D5-436B-96A2-CB17661C75AE";
shapes = (
{
closed = 1;
nodes = (
(383,30,l),
(367,109,o),
(359,196,o),
(359,276,cs),
(359,484,o),
(415,579,o),
(539,579,cs),
(632,579,o),
(674,526,o),
(674,406,cs),
(674,324,o),
(654,251,o),
(654,150,cs),
(654,90,o),
(661,39,o),
(675,2,c),
(777,30,l),
(769,53,o),
(762,109,o),
(762,156,cs),
(762,210,o),
(770,262,o),
(775,317,c),
(831,317,o),
(856,321,o),
(880,329,c),
(899,225,o),
(961,170,o),
(1059,170,cs),
(1183,170,o),
(1272,253,o),
(1272,367,cs),
(1272,466,o),
(1202,537,o),
(1101,537,cs),
(1020,537,o),
(975,496,o),
(927,460,cs),
(886,430,o),
(845,402,o),
(783,402,c),
(783,593,o),
(691,667,o),
(546,667,cs),
(474,667,o),
(412,648,o),
(365,608,c),
(337,616,o),
(321,637,o),
(321,665,cs),
(321,690,o),
(334,722,o),
(334,758,cs),
(334,774,o),
(330,811,o),
(326,833,c),
(359,837,o),
(386,840,o),
(411,840,cs),
(439,840,o),
(465,836,o),
(486,831,c),
(511,914,l),
(491,919,o),
(467,923,o),
(440,923,cs),
(358,923,o),
(241,894,o),
(163,894,cs),
(131,894,o),
(97,899,o),
(58,910,c),
(33,827,l),
(71,817,o),
(105,811,o),
(142,811,cs),
(162,811,o),
(185,812,o),
(210,818,c),
(234,770,o),
(207,712,o),
(207,632,cs),
(207,577,o),
(237,542,o),
(302,529,c),
(268,462,o),
(251,371,o),
(251,267,cs),
(251,189,o),
(261,92,o),
(276,0,c)
);
},
{
closed = 1;
nodes = (
(1005,258,o),
(975,293,o),
(963,378,c),
(1023,428,o),
(1052,443,o),
(1088,443,cs),
(1139,443,o),
(1169,411,o),
(1169,355,cs),
(1169,294,o),
(1133,258,o),
(1068,258,cs)
);
}
);
width = 1317;
},
{
layerId = "953CDB83-177D-4B72-9B41-8425D0D02E2F";
shapes = (
{
closed = 1;
nodes = (
(331,23,l),
(318,102,o),
(311,188,o),
(311,267,cs),
(311,502,o),
(373,609,o),
(514,609,cs),
(621,609,o),
(671,545,o),
(671,405,cs),
(671,314,o),
(650,221,o),
(650,134,cs),
(650,84,o),
(656,42,o),
(664,8,c),
(725,24,l),
(718,57,o),
(714,103,o),
(714,140,cs),
(714,204,o),
(723,269,o),
(729,333,c),
(798,333,o),
(836,340,o),
(871,353,c),
(892,240,o),
(948,178,o),
(1033,178,cs),
(1144,178,o),
(1225,257,o),
(1225,363,cs),
(1225,455,o),
(1164,518,o),
(1074,518,cs),
(983,518,o),
(952,469,o),
(902,430,cs),
(866,402,o),
(820,377,o),
(735,377,c),
(735,524,o),
(706,656,o),
(520,656,cs),
(455,656,o),
(393,633,o),
(343,591,c),
(300,604,o),
(272,633,o),
(272,676,cs),
(272,707,o),
(285,737,o),
(285,766,cs),
(285,782,o),
(280,834,o),
(274,873,c),
(321,879,o),
(360,882,o),
(386,882,cs),
(408,882,o),
(426,881,o),
(445,877,c),
(458,920,l),
(444,923,o),
(429,924,o),
(415,924,cs),
(319,924,o),
(232,894,o),
(136,894,cs),
(110,894,o),
(80,898,o),
(48,905,c),
(34,861,l),
(63,856,o),
(89,855,o),
(116,855,cs),
(134,855,o),
(162,856,o),
(200,863,c),
(234,776,o),
(202,718,o),
(202,647,cs),
(202,600,o),
(237,565,o),
(310,551,c),
(268,462,o),
(247,363,o),
(247,258,cs),
(247,182,o),
(255,91,o),
(268,2,c)
);
},
{
closed = 1;
nodes = (
(967,225,o),
(929,271,o),
(913,384,c),
(986,447,o),
(1020,464,o),
(1062,464,cs),
(1127,464,o),
(1165,425,o),
(1165,351,cs),
(1165,272,o),
(1120,225,o),
(1043,225,cs)
);
}
);
width = 1273;
}
);
unicode = 4800;
}
{
color = 4;
glyphname = "ye-ethiopic";
layers = (
{
background = {
shapes = (
{
closed = 1;
nodes = (
(239,39,l),
(232,48,o),
(230,58,o),
(232,65,cs),
(236,74,o),
(243,79,o),
(285,79,cs),
(438,79,o),
(517,129,o),
(517,228,cs),
(517,286,o),
(490,337,o),
(416,402,c),
(538,459,o),
(598,536,o),
(598,636,cs),
(598,770,o),
(494,863,o),
(343,863,cs),
(186,863,o),
(68,761,o),
(68,625,cs),
(68,532,o),
(125,447,o),
(262,332,cs),
(336,269,o),
(358,247,o),
(358,229,cs),
(358,213,o),
(336,210,o),
(288,210,cs),
(152,210,o),
(68,158,o),
(68,69,cs),
(68,49,o),
(75,27,o),
(90,-4,c)
);
},
{
closed = 1;
nodes = (
(251,543,o),
(226,584,o),
(226,629,cs),
(226,687,o),
(275,732,o),
(343,732,cs),
(403,732,o),
(441,696,o),
(441,636,cs),
(441,573,o),
(401,529,o),
(310,490,c)
);
}
);
};
layerId = "9E010061-AAF6-435A-AC72-EA6F5DDC7760";
shapes = (
{
closed = 1;
nodes = (
(196.236,35.513,l),
(187.641,67.013,o),
(182.922,91.229,o),
(184.863,140.709,cs),
(186.55,183.702,o),
(201.616,210.207,o),
(249.469,225.736,c),
(304.125,131.814,o),
(365.253,81.206,o),
(476.689,81.206,cs),
(585.056,81.206,o),
(692.933,154.655,o),
(725.981,258.094,c),
(597.464,327.915,l),
(562.908,258.384,o),
(527.106,248.6,o),
(479.023,248.6,cs),
(402.612,248.6,o),
(366.194,313.042,o),
(339.224,376.933,c),
(512.542,435.858,o),
(598.23,546,o),
(598.23,646,cs),
(598.23,770,o),
(499.512,863,o),
(356.544,863,cs),
(233.371,863,o),
(85.24,810.477,o),
(85.24,625,cs),
(85.24,532.795,o),
(141.87,423.683,o),
(184.299,358.112,c),
(92.093,330.606,o),
(28.88,251.094,o),
(30.016,121.716,cs),
(30.539,62.094,o),
(30.016,24.002,o),
(37.855,-8.502,c)
);
},
{
closed = 1;
nodes = (
(263.463,532.795,o),
(238.88,573.906,o),
(238.88,621.641,cs),
(238.88,696.445,o),
(300.914,732,o),
(347.544,732,cs),
(391.371,732,o),
(440.252,703.789,o),
(440.252,636,cs),
(440.252,573.906,o),
(390.34,515.912,o),
(287.638,489.228,c)
);
}
);
width = 754.98;
},
{
background = {
shapes = (
{
closed = 1;
nodes = (
(162.833,25.139,l),
(162.833,41.548,o),
(159.14,65.478,o),
(159.14,95.229,cs),
(159.14,145.306,o),
(217.827,168.93,o),
(284.743,183.2,c),
(310.075,146.949,o),
(353.378,91.229,o),
(449.732,91.229,cs),
(512.853,91.229,o),
(588.969,123.11,o),
(635.211,187,c),
(578.872,257.354,l),
(542.885,208.22,o),
(497.242,180.336,o),
(443.732,180.336,cs),
(375.516,180.336,o),
(325.824,269.795,o),
(273.666,375.691,c),
(461.608,430.679,o),
(560.19,508,o),
(560.19,648.789,cs),
(560.19,795,o),
(432.19,861,o),
(340.19,861,cs),
(191.19,861,o),
(87.899,752.008,o),
(87.899,625,cs),
(87.899,484.957,o),
(169.55,379.256,o),
(249.414,248.777,c),
(159.382,239.711,o),
(62.998,195.567,o),
(62.998,95.229,cs),
(62.998,59.048,o),
(62.998,36.331,o),
(62.998,-0.039,c)
);
},
{
closed = 1;
nodes = (
(218.698,484.957,o),
(187.19,540.991,o),
(187.19,628.3,cs),
(187.19,709.656,o),
(256.19,773,o),
(333.19,773,cs),
(387.19,773,o),
(453.19,746,o),
(453.19,648.789,cs),
(453.19,524,o),
(350.409,474,o),
(240.307,444.25,c)
);
}
);
};
layerId = "C85E24C5-F5D5-436B-96A2-CB17661C75AE";
shapes = (
{
closed = 1;
nodes = (
(141.833,33.139,l),
(135.833,48.548,o),
(129.14,69.478,o),
(129.14,99.229,cs),
(129.14,173.534,o),
(174.727,227.021,o),
(249.061,249.433,c),
(310.075,146.949,o),
(353.378,91.229,o),
(449.732,91.229,cs),
(512.853,91.229,o),
(608.421,110.313,o),
(649.041,262.499,c),
(565.341,291.983,l),
(538.885,208.22,o),
(497.242,180.336,o),
(443.732,180.336,cs),
(375.516,180.336,o),
(325.824,269.795,o),
(273.666,375.691,c),
(461.608,430.679,o),
(560.19,508,o),
(560.19,648.789,cs),
(560.19,795,o),
(432.19,861,o),
(340.19,861,cs),
(191.19,861,o),
(87.899,752.008,o),
(87.899,625,cs),
(87.899,484.957,o),
(138.834,432.642,o),
(204.576,325.68,c),
(128.666,293.097,o),
(32.998,260.177,o),
(32.998,95.229,cs),
(32.998,59.048,o),
(37.998,26.37,o),
(48.998,0,c)
);
},
{
closed = 1;
nodes = (
(218.698,484.957,o),
(187.19,540.991,o),
(187.19,628.3,cs),
(187.19,709.656,o),
(256.19,773,o),
(333.19,773,cs),
(387.19,773,o),
(453.19,746,o),
(453.19,648.789,cs),
(453.19,524,o),
(350.409,474,o),
(240.307,444.25,c)
);
}
);
width = 682.04;
},
{
background = {
shapes = (
{
closed = 1;
nodes = (
(107,26,l),
(107,30,o),
(108,33,o),
(109,37,c),
(113,74,o),
(144,88,o),
(213,88,cs),
(336,88,o),
(398,128,o),
(398,203,cs),
(398,258,o),
(358,317,o),
(257,413,c),
(406,477,o),
(478,560,o),
(478,658,cs),
(478,776,o),
(392,859,o),
(271,859,cs),
(141,859,o),
(44,767,o),
(44,645,cs),
(44,556,o),
(95,474,o),
(222,356,cs),
(308,276,o),
(333,242,o),
(333,205,cs),
(333,156,o),
(296,134,o),
(216,134,cs),
(108,134,o),
(44,93,o),
(44,27,cs),
(44,21,o),
(44,13,o),
(44,7,c)
);
},
{
closed = 1;
nodes = (
(143,517,o),
(107,579,o),
(107,648,cs),
(107,743,o),
(175,813,o),
(271,813,cs),
(360,813,o),
(416,754,o),
(416,655,cs),
(416,561,o),
(359,495,o),
(228,435,c)
);
}
);
};
layerId = "953CDB83-177D-4B72-9B41-8425D0D02E2F";
shapes = (
{
closed = 1;
nodes = (
(104.688,22.361,l),
(96.228,57.061,o),
(95.287,92.885,o),
(95.287,127.128,cs),
(95.287,240.59,o),
(182.24,238.574,o),
(212.972,259.331,c),
(259.482,181.869,o),
(328.891,114.403,o),
(412.417,114.403,cs),
(497.538,114.403,o),
(555.744,145.983,o),
(583.696,258.063,c),
(527.076,280.219,l),
(511.583,216.332,o),
(487.642,163.793,o),
(412.234,163.793,cs),
(328.234,163.793,o),
(262.482,260.954,o),
(193.822,397.872,c),
(357.019,435.195,o),
(477.04,526.789,o),
(477.04,669.789,cs),
(477.04,750.789,o),
(422.04,859,o),
(279.04,859,cs),
(154.04,859,o),
(55.04,769.3,o),
(55.04,633.3,cs),
(55.04,516.948,o),
(126.71,410.284,o),
(190.239,297.331,c),
(135.01,279.85,o),
(34,252.98,o),
(34,118.857,cs),
(34,81.091,o),
(38.1,40.893,o),
(45.376,-0.039,c)
);
},
{
closed = 1;
nodes = (
(135.01,498.828,o),
(113.04,584.295,o),
(113.04,631.594,cs),
(113.04,749.3,o),
(191.04,812,o),
(276.04,812,cs),
(381.04,812,o),
(415.04,727.789,o),
(415.04,668.789,cs),
(415.04,539.789,o),
(321.433,465.258,o),
(180.723,428.711,c)
);
}
);
width = 618.7;
}
);
metricLeft = "ddo-ethiopic";
metricRight = "tsi-ethiopic";
unicode = 4845;
}
{
color = 9;
glyphname = "tze-ethiopic";
layers = (
{
layerId = "9E010061-AAF6-435A-AC72-EA6F5DDC7760";
shapes = (
{
closed = 1;
nodes = (
(521,-12,o),
(651,151,o),
(651,398,cs),
(651,573,o),
(585,675,o),
(456,703,c),
(456,776,o),
(446,841,o),
(428,891,c),
(281,848,l),
(294,795,o),
(300,751,o),
(300,701,c),
(152,664,o),
(68,522,o),
(68,314,cs),
(68,102,o),
(157,-12,o),
(323,-12,cs)
);
},
{
closed = 1;
nodes = (
(266,118,o),
(228,182,o),
(227,295,c),
(275,296,o),
(320,302,o),
(363,308,cs),
(423,318,o),
(455,322,o),
(490,322,c),
(477,194,o),
(420,118,o),
(336,118,cs)
);
},
{
closed = 1;
nodes = (
(253,528,o),
(301,579,o),
(374,579,cs),
(442,579,o),
(479,539,o),
(490,448,c),
(459,447,o),
(418,439,o),
(363,431,cs),
(318,424,o),
(277,418,o),
(234,422,c)
);
}
);
width = 719;
},
{
background = {
shapes = (
{
closed = 1;
nodes = (
(498,-24,o),
(633,147,o),
(633,405,cs),
(633,624,o),
(535,746,o),
(362,746,cs),
(163,746,o),
(43,584,o),
(43,319,cs),
(43,93,o),
(130,-24,o),
(297,-24,cs)
);
},
{
closed = 1;
nodes = (
(195,64,o),
(149,176,o),
(149,317,c),
(217,313,o),
(274,320,o),
(338,330,cs),
(402,340,o),
(462,343,o),
(523,340,c),
(506,173,o),
(423,64,o),
(308,64,cs)
);
},
{
closed = 1;
nodes = (
(179,570,o),
(246,658,o),
(348,658,cs),
(450,658,o),
(514,573,o),
(523,427,c),
(466,427,o),
(416,420,o),
(369,413,cs),
(286,401,o),
(227,393,o),
(155,405,c)
);
}
);
};
layerId = "C85E24C5-F5D5-436B-96A2-CB17661C75AE";
shapes = (
{
closed = 1;
nodes = (
(494,-13,o),
(604,164,o),
(604,396,cs),
(604,566,o),
(545,673,o),
(411,695,c),
(411,773,o),
(405,838,o),
(390,883,c),
(289,852,l),
(299,801,o),
(304,753,o),
(304,695,c),
(150,661,o),
(72,508,o),
(72,307,cs),
(72,112,o),
(145,-13,o),
(303,-13,cs)
);
},
{
closed = 1;
nodes = (
(216,75,o),
(171.398,181,o),
(171.398,312,c),
(245.527,312,o),
(286,319.502,o),
(338,326.502,cs),
(409,336.502,o),
(463.787,343.307,o),
(508.461,341,c),
(498.461,194,o),
(437.887,75,o),
(316,75,cs)
);
},
{
closed = 1;
nodes = (
(195,503,o),
(237.457,611.779,o),
(358.598,611.779,cs),
(440.508,611.779,o),
(509.502,551.856,o),
(509.502,428.676,c),
(452.896,432.695,o),
(401.15,422.943,o),
(352.658,415.104,cs),
(292.44,405.368,o),
(236.242,395,o),
(183,397,c)
);
}
);
width = 676;
},
{
background = {
shapes = (
{
closed = 1;
nodes = (
(465,-33,o),
(592,138,o),
(592,395,cs),
(592,612,o),
(501,732,o),
(342,732,cs),
(157,732,o),
(46,570,o),
(46,306,cs),
(46,83,o),
(126,-33,o),
(277,-33,cs)
);
},
{
closed = 1;
nodes = (
(115,14,o),
(108,212,o),
(108,327,c),
(185,324,o),
(238,326,o),
(315,339,cs),
(388,352,o),
(456,353,o),
(527,350,c),
(509,146,o),
(416,14,o),
(289,14,cs)
);
},
{
closed = 1;
nodes = (
(137,577,o),
(213,685,o),
(329,685,cs),
(443,685,o),
(516,578,o),
(527,395,c),
(463,395,o),
(416,389,o),
(352,380,cs),
(260,367,o),
(202,360,o),
(110,376,c)
);
}
);
};
layerId = "953CDB83-177D-4B72-9B41-8425D0D02E2F";
shapes = (
{
closed = 1;
nodes = (
(500,-34,o),
(561,206,o),
(561,374,cs),
(561,505,o),
(525,642,o),
(367,669,c),
(367,728,o),
(368,793,o),
(355,856,c),
(295,836,l),
(305,781,o),
(306,724,o),
(306,669,c),
(124,629,o),
(75,433,o),
(75,280,cs),
(75,147,o),
(106,-34,o),
(282,-34,cs)
);
},
{
closed = 1;
nodes = (
(137,12,o),
(138,199,o),
(138,303,c),
(199,293.594,o),
(252,306,o),
(315,314,cs),
(367,321,o),
(438,338,o),
(500,338,c),
(493,229,o),
(452,12,o),
(295,12,cs)
);
},
{
closed = 1;
nodes = (
(142,474.422,o),
(216.734,618.906,o),
(325,618.906,cs),
(475.213,618.906,o),
(500,497,o),
(500,383,c),
(405,377,o),
(368,362.922,o),
(317.141,355.109,cs),
(256.509,345.796,o),
(199,338,o),
(137,342.422,c)
);
}
);
width = 635;
}
);
unicode = 4933;
}
{
glyphname = quotesinglbase;
layers = (
{
layerId = "9E010061-AAF6-435A-AC72-EA6F5DDC7760";
shapes = (
{
closed = 1;
nodes = (
(151,-190,l),
(184,-114,o),
(219,-21,o),
(239,57,c),
(228,69,l),
(85,69,l),
(78,17,o),
(61,-80,o),
(36,-190,c)
);
}
);
vertWidth = 1357.3098;
width = 294;
},
{
layerId = "953CDB83-177D-4B72-9B41-8425D0D02E2F";
shapes = (
{
closed = 1;
nodes = (
(84,-190,l),
(114,-122,o),
(147,-29,o),
(167,59,c),
(159,69,l),
(93,69,l),
(81,-12,o),
(64,-106,o),
(38,-190,c)
);
}
);
vertWidth = 770.3388;
width = 235;
},
{
layerId = "C85E24C5-F5D5-436B-96A2-CB17661C75AE";
shapes = (
{
closed = 1;
nodes = (
(117,-190,l),
(148,-116,o),
(184,-21,o),
(204,57,c),
(196,69,l),
(87,69,l),
(74,-6,o),
(55,-112,o),
(36,-190,c)
);
}
);
vertWidth = 207.6228;
width = 265;
}
);
note = quotesinglbase;
unicode = 8218;
userData = {
KernOnSpecialSpacing = {
L = quotes;
R = quotes;
};
};
}
{
glyphname = quotedblbase;
layers = (
{
layerId = "9E010061-AAF6-435A-AC72-EA6F5DDC7760";
shapes = (
{
closed = 1;
nodes = (
(391,-190,l),
(424,-117,o),
(459,-17,o),
(478,57,c),
(469,69,l),
(324,69,l),
(316,4,o),
(295,-107,o),
(274,-190,c)
);
},
{
closed = 1;
nodes = (
(151,-190,l),
(185,-110,o),
(218,-23,o),
(237,57,c),
(228,69,l),
(85,69,l),
(78,16,o),
(52,-114,o),
(36,-190,c)
);
}
);
vertWidth = 1357.3098;
width = 536;
},
{
layerId = "953CDB83-177D-4B72-9B41-8425D0D02E2F";
shapes = (
{
closed = 1;
nodes = (
(254,-190,l),
(286,-114,o),
(316,-32,o),
(335,59,c),
(329,69,l),
(263,69,l),
(256,9,o),
(229,-116,o),
(206,-190,c)
);
},
{
closed = 1;
nodes = (
(83,-190,l),
(114,-118,o),
(148,-27,o),
(165,59,c),
(159,69,l),
(91,69,l),
(83,-10,o),
(55,-132,o),
(38,-190,c)
);
}
);
vertWidth = 770.3388;
width = 397;
},
{
layerId = "C85E24C5-F5D5-436B-96A2-CB17661C75AE";
shapes = (
{
closed = 1;
nodes = (
(317,-190,l),
(352,-116,o),
(386,-21,o),
(404,57,c),
(398,69,l),
(288,69,l),
(279,4,o),
(254,-122,o),
(236,-190,c)
);
},
{
closed = 1;
nodes = (
(114,-190,l),
(147,-116,o),
(183,-21,o),
(203,57,c),
(195,69,l),
(85,69,l),
(75,9,o),
(51,-125,o),
(36,-190,c)
);
}
);
vertWidth = 207.6228;
width = 455;
}
);
note = quotedblbase;
unicode = 8222;
userData = {
KernOnSpecialSpacing = {
L = quotes;
R = quotes;
};
};
}
{
glyphname = ellipsis;
layers = (
{
anchors = (
{
name = "#entry";
pos = (-33,0);
},
{
name = "#exit";
pos = (744,0);
}
);
background = {
anchors = (
{
name = "#entry";
pos = (-19050.479,0);
},
{
name = "#exit";
pos = (-18140.674,0);
}
);
shapes = (
{
closed = 1;
nodes = (
(-18854.431,-14.087,o),
(-18813.343,11.739,o),
(-18813.343,76.306,cs),
(-18813.343,142.047,o),
(-18854.431,164.352,o),
(-18902.562,164.352,cs),
(-18955.39,164.352,o),
(-18995.304,142.047,o),
(-18995.304,76.306,cs),
(-18995.304,12.913,o),
(-18955.39,-14.087,o),
(-18902.562,-14.087,cs)
);
},
{
closed = 1;
nodes = (
(-18530.423,-14.087,o),
(-18489.335,11.739,o),
(-18489.335,76.306,cs),
(-18489.335,142.047,o),
(-18530.423,164.352,o),
(-18578.554,164.352,cs),
(-18631.382,164.352,o),
(-18671.296,142.047,o),
(-18671.296,76.306,cs),
(-18671.296,12.913,o),
(-18631.382,-14.087,o),
(-18578.554,-14.087,cs)
);
},
{
closed = 1;
nodes = (
(-18204.067,-14.087,o),
(-18162.979,11.739,o),
(-18162.979,76.306,cs),
(-18162.979,142.047,o),
(-18204.067,164.352,o),
(-18252.198,164.352,cs),
(-18305.026,164.352,o),
(-18344.94,142.047,o),
(-18344.94,76.306,cs),
(-18344.94,12.913,o),
(-18305.026,-14.087,o),
(-18252.198,-14.087,cs)
);
}
);
};
layerId = "9E010061-AAF6-435A-AC72-EA6F5DDC7760";
shapes = (
{
closed = 1;
nodes = (
(163,-14,o),
(204,12,o),
(204,77,cs),
(204,142,o),
(163,164,o),
(115,164,cs),
(62,164,o),
(23,142,o),
(23,77,cs),
(23,13,o),
(62,-14,o),
(115,-14,cs)
);
},
{
closed = 1;
nodes = (
(422,-14,o),
(463,12,o),
(463,77,cs),
(463,142,o),
(422,164,o),
(374,164,cs),
(321,164,o),
(282,142,o),
(282,77,cs),
(282,13,o),
(321,-14,o),
(374,-14,cs)
);
},
{
closed = 1;
nodes = (
(681,-14,o),
(722,12,o),
(722,77,cs),
(722,142,o),
(681,164,o),
(633,164,cs),
(580,164,o),
(541,142,o),
(541,77,cs),
(541,13,o),
(580,-14,o),
(633,-14,cs)
);
}
);
width = 745;
},
{
anchors = (
{
name = "#entry";
pos = (-55,0);
},
{
name = "#exit";
pos = (563,0);
}
);
background = {
anchors = (
{
name = "#entry";
pos = (-26886.913,0);
},
{
name = "#exit";
pos = (-26119.155,0);
}
);
shapes = (
{
closed = 1;
nodes = (
(-26729.605,-11.739,o),
(-26711.996,7.044,o),
(-26711.996,43.436,cs),
(-26711.996,79.828,o),
(-26729.605,98.611,o),
(-26761.301,98.611,cs),
(-26789.476,98.611,o),
(-26808.259,79.828,o),
(-26808.259,43.436,cs),
(-26808.259,7.044,o),
(-26789.476,-11.739,o),
(-26761.301,-11.739,cs)
);
},
{
closed = 1;
nodes = (
(-26450.207,-11.739,o),
(-26432.597,7.044,o),
(-26432.597,43.436,cs),
(-26432.597,79.828,o),
(-26450.207,98.611,o),
(-26481.903,98.611,cs),
(-26510.078,98.611,o),
(-26528.861,79.828,o),
(-26528.861,43.436,cs),
(-26528.861,7.044,o),
(-26510.078,-11.739,o),
(-26481.903,-11.739,cs)
);
},
{
closed = 1;
nodes = (
(-26168.46,-11.739,o),
(-26150.851,7.044,o),
(-26150.851,43.436,cs),
(-26150.851,79.828,o),
(-26168.46,98.611,o),
(-26200.157,98.611,cs),
(-26228.331,98.611,o),
(-26247.115,79.828,o),
(-26247.115,43.436,cs),
(-26247.115,7.044,o),
(-26228.331,-11.739,o),
(-26200.157,-11.739,cs)
);
}
);
};
layerId = "953CDB83-177D-4B72-9B41-8425D0D02E2F";
shapes = (
{
closed = 1;
nodes = (
(102,-12,o),
(120,7,o),
(120,44,cs),
(120,79,o),
(102,99,o),
(70,99,cs),
(42,99,o),
(23,79,o),
(23,44,cs),
(23,7,o),
(42,-12,o),
(70,-12,cs)
);
},
{
closed = 1;
nodes = (
(308,-12,o),
(326,7,o),
(326,44,cs),
(326,79,o),
(308,99,o),
(276,99,cs),
(248,99,o),
(229,79,o),
(229,44,cs),
(229,7,o),
(248,-12,o),
(276,-12,cs)
);
},
{
closed = 1;
nodes = (
(514,-12,o),
(532,7,o),
(532,44,cs),
(532,79,o),
(514,99,o),
(482,99,cs),
(454,99,o),
(435,79,o),
(435,44,cs),
(435,7,o),
(454,-12,o),
(482,-12,cs)
);
}
);
width = 555;
},
{
anchors = (
{
name = "#entry";
pos = (-45,0);
},
{
name = "#exit";
pos = (666,0);
}
);
background = {
anchors = (
{
name = "#entry";
pos = (-23262.16,0);
},
{
name = "#exit";
pos = (-22414.574,0);
}
);
shapes = (
{
closed = 1;
nodes = (
(-23084.895,-15.261,o),
(-23052.025,8.218,o),
(-23052.025,62.219,cs),
(-23052.025,117.394,o),
(-23084.895,137.351,o),
(-23123.635,137.351,cs),
(-23162.375,137.351,o),
(-23194.072,117.394,o),
(-23194.072,62.219,cs),
(-23194.072,8.218,o),
(-23162.375,-15.261,o),
(-23123.635,-15.261,cs)
);
},
{
closed = 1;
nodes = (
(-22780.844,-15.261,o),
(-22747.974,8.218,o),
(-22747.974,62.219,cs),
(-22747.974,117.394,o),
(-22780.844,137.351,o),
(-22819.584,137.351,cs),
(-22858.324,137.351,o),
(-22890.021,117.394,o),
(-22890.021,62.219,cs),
(-22890.021,8.218,o),
(-22858.324,-15.261,o),
(-22819.584,-15.261,cs)
);
},
{
closed = 1;
nodes = (
(-22474.445,-15.261,o),
(-22441.575,8.218,o),
(-22441.575,62.219,cs),
(-22441.575,117.394,o),
(-22474.445,137.351,o),
(-22513.185,137.351,cs),
(-22551.925,137.351,o),
(-22583.622,117.394,o),
(-22583.622,62.219,cs),
(-22583.622,8.218,o),
(-22551.925,-15.261,o),
(-22513.185,-15.261,cs)
);
}
);
};
layerId = "C85E24C5-F5D5-436B-96A2-CB17661C75AE";
shapes = (
{
closed = 1;
nodes = (
(132,-16,o),
(166,8,o),
(166,62,cs),
(166,117,o),
(132,138,o),
(94,138,cs),
(55,138,o),
(23,117,o),
(23,62,cs),
(23,8,o),
(55,-16,o),
(94,-16,cs)
);
},
{
closed = 1;
nodes = (
(369,-16,o),
(403,8,o),
(403,62,cs),
(403,117,o),
(369,138,o),
(331,138,cs),
(292,138,o),
(260,117,o),
(260,62,cs),
(260,8,o),
(292,-16,o),
(331,-16,cs)
);
},
{
closed = 1;
nodes = (
(606,-16,o),
(640,8,o),
(640,62,cs),
(640,117,o),
(606,138,o),
(568,138,cs),
(529,138,o),
(497,117,o),
(497,62,cs),
(497,8,o),
(529,-16,o),
(568,-16,cs)
);
}
);
width = 663;
}
);
metricLeft = "=+23";
metricRight = "=+23";
note = ellipsis;
unicode = 8230;
}
{
glyphname = approxequal;
layers = (
{
layerId = "9E010061-AAF6-435A-AC72-EA6F5DDC7760";
shapes = (
{
closed = 1;
nodes = (
(77,213,o),
(122,240,o),
(158,240,cs),
(190,240,o),
(221,234,o),
(273,212,cs),
(337,184,o),
(370,179,o),
(410,179,cs),
(460,179,o),
(503,196,o),
(536,235,c),
(536,358,l),
(503,323,o),
(460,295,o),
(420,295,cs),
(391,295,o),
(358,301,o),
(308,323,cs),
(244,351,o),
(209,358,o),
(170,358,cs),
(118,358,o),
(77,338,o),
(42,301,c),
(42,178,l)
);
},
{
closed = 1;
nodes = (
(77,430,o),
(122,457,o),
(158,457,cs),
(190,457,o),
(221,451,o),
(273,429,cs),
(337,401,o),
(370,396,o),
(410,396,cs),
(460,396,o),
(503,413,o),
(536,452,c),
(536,575,l),
(503,540,o),
(460,512,o),
(420,512,cs),
(391,512,o),
(358,518,o),
(308,540,cs),
(244,568,o),
(209,575,o),
(170,575,cs),
(118,575,o),
(77,555,o),
(42,518,c),
(42,395,l)
);
}
);
width = 553;
},
{
layerId = "C85E24C5-F5D5-436B-96A2-CB17661C75AE";
shapes = (
{
closed = 1;
nodes = (
(83,242,o),
(125,269,o),
(164,269,cs),
(194,269,o),
(223,263,o),
(274,241,cs),
(335,214,o),
(369,207,o),
(408,207,cs),
(457,207,o),
(498,228,o),
(532,264,c),
(532,355,l),
(498,320,o),
(454,292,o),
(415,292,cs),
(385,292,o),
(356,299,o),
(307,321,cs),
(244,350,o),
(212,355,o),
(173,355,cs),
(122,355,o),
(83,335,o),
(49,299,c),
(49,207,l)
);
},
{
closed = 1;
nodes = (
(83,434,o),
(125,461,o),
(164,461,cs),
(194,461,o),
(223,455,o),
(274,433,cs),
(335,406,o),
(369,399,o),
(408,399,cs),
(457,399,o),
(498,420,o),
(532,456,c),
(532,547,l),
(498,512,o),
(454,484,o),
(415,484,cs),
(385,484,o),
(356,491,o),
(307,513,cs),
(244,542,o),
(212,547,o),
(173,547,cs),
(122,547,o),
(83,527,o),
(49,491,c),
(49,399,l)
);
}
);
width = 553;
},
{
layerId = "953CDB83-177D-4B72-9B41-8425D0D02E2F";
shapes = (
{
closed = 1;
nodes = (
(88,275,o),
(132,297,o),
(170,297,cs),
(206,297,o),
(235,289,o),
(279,269,cs),
(331,245,o),
(365,235,o),
(408,235,cs),
(455,235,o),
(496,256,o),
(527,289,c),
(527,349,l),
(491,310,o),
(447,289,o),
(410,289,cs),
(376,289,o),
(347,299,o),
(303,320,cs),
(251,344,o),
(221,352,o),
(174,352,cs),
(127,352,o),
(85,333,o),
(52,298,c),
(52,237,l)
);
},
{
closed = 1;
nodes = (
(88,442,o),
(132,464,o),
(170,464,cs),
(206,464,o),
(235,456,o),
(279,436,cs),
(331,412,o),
(365,402,o),
(408,402,cs),
(455,402,o),
(496,423,o),
(527,456,c),
(527,516,l),
(491,477,o),
(447,456,o),
(410,456,cs),
(376,456,o),
(347,466,o),
(303,487,cs),
(251,511,o),
(221,519,o),
(174,519,cs),
(127,519,o),
(85,500,o),
(52,465,c),
(52,404,l)
);
}
);
width = 581;
}
);
unicode = 8776;
userData = {
KernOnSpecialSpacing = {
L = math;
R = math;
};
};
}
{
glyphname = notequal;
layers = (
{
layerId = "9E010061-AAF6-435A-AC72-EA6F5DDC7760";
shapes = (
{
closed = 1;
nodes = (
(536,419,l),
(536,530,l),
(42,530,l),
(42,419,l)
);
},
{
closed = 1;
nodes = (
(536,217,l),
(536,329,l),
(42,329,l),
(42,217,l)
);
},
{
closed = 1;
nodes = (
(262.145,97.297,l),
(453.32,633.297,l),
(350.652,633.297,l),
(158.06,97.297,l)
);
}
);
width = 600;
},
{
layerId = "C85E24C5-F5D5-436B-96A2-CB17661C75AE";
shapes = (
{
closed = 1;
nodes = (
(526,437,l),
(526,518,l),
(52,518,l),
(52,437,l)
);
},
{
closed = 1;
nodes = (
(526,229,l),
(526,309,l),
(52,309,l),
(52,229,l)
);
},
{
closed = 1;
nodes = (
(233.822,97.297,l),
(425.706,633.297,l),
(352.068,633.297,l),
(160.892,97.297,l)
);
}
);
width = 600;
},
{
layerId = "953CDB83-177D-4B72-9B41-8425D0D02E2F";
shapes = (
{
closed = 1;
nodes = (
(521,455,l),
(521,507,l),
(58,507,l),
(58,455,l)
);
},
{
closed = 1;
nodes = (
(521,242,l),
(521,291,l),
(58,291,l),
(58,242,l)
);
},
{
closed = 1;
nodes = (
(208.332,97.297,l),
(399.508,633.297,l),
(353.484,633.297,l),
(162.308,97.297,l)
);
}
);
width = 579;
}
);
unicode = 8800;
}
{
color = 9;
glyphname = "hhwee-ethiopic";
layers = (
{
background = {
shapes = (
{
closed = 1;
nodes = (
(715.041,318.89,o),
(740.868,279.742,o),
(740.868,146.008,cs),
(740.868,50.957,o),
(810.13,-16.462,o),
(940.438,-16.462,cs),
(1089.529,-16.462,o),
(1168.183,69.746,o),
(1168.183,160.376,cs),
(1168.183,258.743,o),
(1096.572,308.479,o),
(1000.309,308.479,cs),
(975.656,308.479,o),
(916.959,302.952,o),
(879.393,284.163,c),
(861.784,384.741,o),
(801.913,436.61,o),
(693.91,436.61,c),
(661.04,318.89,l)
);
},
{
closed = 1;
nodes = (
(892.306,157.061,o),
(893.48,163.692,o),
(894.654,170.324,c),
(916.959,180.271,o),
(941.612,185.796,o),
(961.569,185.796,cs),
(996.787,185.796,o),
(1012.048,171.428,o),
(1012.048,147.114,cs),
(1012.048,122.798,o),
(987.396,107.324,o),
(946.308,107.324,cs),
(911.089,107.324,o),
(892.306,121.693,o),
(892.306,150.429,cs)
);
}
);
};
layerId = "9E010061-AAF6-435A-AC72-EA6F5DDC7760";
shapes = (
{
closed = 1;
nodes = (
(1165,-17,o),
(1249,75,o),
(1249,173,cs),
(1249,280,o),
(1173,333,o),
(1072,333,cs),
(1041,333,o),
(973,325,o),
(933,306,c),
(937,345,o),
(939,392,o),
(933,417,c),
(982,418,o),
(1109,427.487,o),
(1173,449,c),
(1199,355,o),
(1266,294,o),
(1371,294,cs),
(1509,294,o),
(1609,374,o),
(1609,491,cs),
(1609,594,o),
(1529,666,o),
(1413,666,cs),
(1308,666,o),
(1233.44,567.599,o),
(1120,539.561,cs),
(1034.922,518.533,o),
(946,516,o),
(861,515,c),
(820,541,o),
(772,555,o),
(703,555,cs),
(657,555,o),
(624,548,o),
(590,538,c),
(595,582,o),
(599,619,o),
(599,656,cs),
(599,693,o),
(576,760,o),
(543,800,c),
(389,761,l),
(435,717,o),
(448,666,o),
(448,628,cs),
(448,589,o),
(445,553,o),
(441,517,c),
(417,521,o),
(390,525,o),
(363,525,cs),
(180,525,o),
(55,392,o),
(55,195,cs),
(55,147,o),
(65,59,o),
(85,-5,c),
(231,44,l),
(215,93,o),
(207,178,o),
(207,215,cs),
(207,324,o),
(270,394,o),
(367,394,cs),
(385,394,o),
(403,392,o),
(419,388,c),
(413,345,o),
(410,300,o),
(410,257,cs),
(410,173,o),
(422,59,o),
(444,-5,c),
(585,38,l),
(566,106,o),
(559,200,o),
(559,263,cs),
(559,303,o),
(562,354,o),
(567,398,c),
(598,414,o),
(633,423,o),
(661,423,cs),
(745,423,o),
(778,402,o),
(783,353,cs),
(787,310,o),
(789,233,o),
(789,160,cs),
(789,57,o),
(868,-17,o),
(1006,-17,cs)
);
},
{
closed = 1;
nodes = (
(969,108,o),
(945,125,o),
(945,163,cs),
(945,171,o),
(946,180,o),
(948,190,c),
(976,203,o),
(1005,210,o),
(1029,210,cs),
(1073,210,o),
(1093,191,o),
(1093,159,cs),
(1093,127,o),
(1063,108,o),
(1013,108,cs)
);
},
{
closed = 1;
nodes = (
(1336,412,o),
(1308,438,o),
(1298,492,c),
(1345,529,o),
(1374,544,o),
(1401,544,cs),
(1442,544,o),
(1465,520,o),
(1465,481,cs),
(1465,437,o),
(1435,412,o),
(1382,412,cs)
);
}
);
width = 1651;
},
{
background = {
shapes = (
{
closed = 0;
nodes = (
(602.232,352.183,ls),
(676.191,352.183,o),
(710.235,298.181,o),
(709.061,149.091,cs),
(709.061,56.349,o),
(778.324,-10.565,o),
(892.196,-10.565,cs),
(1024.851,-10.565,o),
(1095.288,73.958,o),
(1095.288,163.178,cs),
(1095.288,258.267,o),
(1034.243,305.225,o),
(952.067,305.225,cs),
(914.501,305.225,o),
(844.064,295.833,o),
(813.542,280.572,c),
(798.281,390.923,o),
(741.931,441.402,o),
(637.451,441.402,cs)
);
},
{
closed = 1;
nodes = (
(819.412,164.352,o),
(820.585,177.265,o),
(824.107,191.353,c),
(853.456,207.788,o),
(886.326,217.179,o),
(913.327,217.179,cs),
(966.154,217.179,o),
(988.459,192.526,o),
(988.459,149.091,cs),
(988.459,106.829,o),
(954.415,78.654,o),
(898.066,78.654,cs),
(846.412,78.654,o),
(819.412,103.307,o),
(819.412,152.612,cs)
);
}
);
};
layerId = "C85E24C5-F5D5-436B-96A2-CB17661C75AE";
shapes = (
{
closed = 1;
nodes = (
(1133,-12,o),
(1205,72,o),
(1205,164,cs),
(1205,262,o),
(1141,310,o),
(1054,310,cs),
(1013,310,o),
(943,302,o),
(901,281,c),
(901,313,o),
(898,346,o),
(892,365,c),
(999,370,o),
(1103,377,o),
(1145,390,c),
(1191,315,o),
(1268,262,o),
(1354,262,cs),
(1477.296,262,o),
(1571.157,303.982,o),
(1565.238,429.312,cs),
(1562.169,494.296,o),
(1508.085,556,o),
(1413.125,556,cs),
(1289.566,556,o),
(1254.268,502.45,o),
(1152.226,478.347,cs),
(1059.332,456.405,o),
(948.035,438.74,o),
(844,453,c),
(799,473,o),
(778,482,o),
(733,482,cs),
(661,482,o),
(614,472,o),
(568,455,c),
(577,513,o),
(581,560,o),
(581,604,cs),
(581,647,o),
(577,697,o),
(544,747,c),
(434,730,l),
(470,684,o),
(474,637,o),
(474,591,cs),
(474,544,o),
(470,498,o),
(462,454,c),
(429,462,o),
(393,468,o),
(358,468,cs),
(180,468,o),
(59,335,o),
(59,144,cs),
(59,93,o),
(65,48,o),
(81,-2,c),
(188,34,l),
(175,76,o),
(168,121,o),
(168,163,cs),
(168,293,o),
(244,378,o),
(363,378,cs),
(390,378,o),
(421,373,o),
(446,365,c),
(437,311,o),
(432,258,o),
(432,208,cs),
(432,126,o),
(442,53,o),
(460,2,c),
(562,31,l),
(546,91,o),
(540,147,o),
(540,215,cs),
(540,261,o),
(544,302,o),
(552,357,c),
(592,379,o),
(637,392,o),
(669,392,cs),
(730,392,o),
(767,373,o),
(778,323,cs),
(786,287,o),
(786,235,o),
(786,154,cs),
(786,58,o),
(869,-12,o),
(992,-12,cs)
);
},
{
closed = 1;
nodes = (
(937,73,o),
(906,96,o),
(906,153,cs),
(906,167,o),
(908,181,o),
(910,197,c),
(945,215,o),
(978,226,o),
(1011,226,cs),
(1073,226,o),
(1099,198,o),
(1099,148,cs),
(1099,100,o),
(1063,73,o),
(998,73,cs)
);
},
{
closed = 1;
nodes = (
(1329,335,o),
(1244.727,357.711,o),
(1232.727,420.711,c),
(1293.727,468.711,o),
(1337.406,489,o),
(1402,489,cs),
(1454,489,o),
(1488,467,o),
(1488,414,cs),
(1488,358,o),
(1452,335,o),
(1388,335,cs)
);
}
);
width = 1611.5;
},
{
layerId = "953CDB83-177D-4B72-9B41-8425D0D02E2F";
shapes = (
{
closed = 1;
nodes = (
(1144,-12,o),
(1196,70,o),
(1196,155,cs),
(1196,243,o),
(1140,288,o),
(1065,288,cs),
(1029,288,o),
(983,287,o),
(911,249,c),
(910,279.928,o),
(916.791,322.301,o),
(900,369,c),
(1060,383,o),
(1134,404,o),
(1170,426,c),
(1184,364,o),
(1248.852,256.57,o),
(1378.617,256.57,cs),
(1477.37,256.57,o),
(1539.967,326.085,o),
(1539.967,404.534,cs),
(1539.967,479.554,o),
(1513.006,563,o),
(1369.267,563,cs),
(1300.449,563,o),
(1246.589,524.714,o),
(1159.648,473.711,cs),
(1115.625,447.885,o),
(1029,419,o),
(880,417,c),
(848,448,o),
(786,467,o),
(726,467,cs),
(684,467,o),
(615,454,o),
(548,427,c),
(560,491,o),
(564,544,o),
(564,578,cs),
(564,609,o),
(559,678,o),
(520,727,c),
(453,723,l),
(491,662,o),
(496,596,o),
(496,562,cs),
(496,524,o),
(492,473,o),
(481,432,c),
(434,446,o),
(389,454,o),
(353,454,cs),
(180,454,o),
(61,315,o),
(61,127,cs),
(61,71,o),
(65,32,o),
(77,-8,c),
(144,16,l),
(134,54,o),
(128,100,o),
(128,147,cs),
(128,300,o),
(219,398,o),
(359,398,cs),
(389,398,o),
(429,389,o),
(473,375,c),
(460,306,o),
(454,246,o),
(454,194,cs),
(454,122,o),
(461,57,o),
(473,8,c),
(539,26,l),
(525,84,o),
(521,136,o),
(521,203,cs),
(521,252,o),
(524,301,o),
(535,366,c),
(586,396,o),
(641,413,o),
(686,413,cs),
(767,413,o),
(849,402,o),
(849,318,cs),
(849,293,o),
(852,248,o),
(852,138,cs),
(852,52,o),
(910,-12,o),
(1016,-12,cs)
);
},
{
closed = 1;
nodes = (
(948,35,o),
(908,69,o),
(908,143,cs),
(908,164,o),
(909,182,o),
(911,203,c),
(949,224,o),
(977,237,o),
(1022,237,cs),
(1101,237,o),
(1134,206,o),
(1134,139,cs),
(1134,75,o),
(1104,35,o),
(1023,35,cs)
);
},
{
closed = 1;
nodes = (
(1285,310,o),
(1236,383,o),
(1221,447,c),
(1282.17,498.825,o),
(1322,509,o),
(1381,509,cs),
(1427,509,o),
(1478,496.825,o),
(1478,404,cs),
(1478,344,o),
(1441,310,o),
(1381,310,cs)
);
}
);
width = 1587.97;
}
);
metricLeft = "hhya-ethiopic";
metricRight = "cha-ethiopic";
unicode = 124906;
}
{
color = 1;
glyphname = "pwiGurage-ethiopic";
layers = (
{
layerId = "9E010061-AAF6-435A-AC72-EA6F5DDC7760";
shapes = (
{
closed = 1;
nodes = (
(514,-12,o),
(557,9,o),
(601,9,cs),
(642,9,o),
(662,3,o),
(689,-9,c),
(743,109,l),
(707,130,o),
(672,139,o),
(611,139,cs),
(559,139,o),
(515,118,o),
(468,118,cs),
(429,118,o),
(416,143,o),
(416,219,cs),
(416,270.683,o),
(420.616,322.366,o),
(426.03,374.049,c),
(477.119,374.449,o),
(496.271,377.224,o),
(512,380,c),
(535,288,o),
(605,239,o),
(709,239,cs),
(847,239,o),
(947,323,o),
(947,444,cs),
(947,550,o),
(867,623,o),
(749,623,cs),
(671,623,o),
(622,590,o),
(563,548,cs),
(535.416,528.025,o),
(506.927,505.336,o),
(438.808,500.587,c),
(441.325,531.725,o),
(443,562.862,o),
(443,594,cs),
(443,632,o),
(442,735,o),
(440,762,c),
(486,766,o),
(520,768,o),
(546,768,cs),
(581,768,o),
(614,762,o),
(647,754,c),
(686,886,l),
(649,895,o),
(614,901,o),
(574,901,cs),
(453,901,o),
(334,874,o),
(215,874,cs),
(176,874,o),
(135,880,o),
(81,894,c),
(42,763,l),
(98,747,o),
(143,741,o),
(184,741,cs),
(208,741,o),
(242,743,o),
(282,745,c),
(285,714,o),
(287,613,o),
(287,580,cs),
(287,460,o),
(261,341,o),
(261,223,cs),
(261,59,o),
(318,-12,o),
(455,-12,cs)
);
},
{
closed = 1;
nodes = (
(674,365,o),
(650,389,o),
(640,445,c),
(686,479,o),
(711,491,o),
(736,491,cs),
(773,491,o),
(795,469,o),
(795,432,cs),
(795,390,o),
(768,365,o),
(721,365,cs)
);
}
);
width = 988;
},
{
layerId = "C85E24C5-F5D5-436B-96A2-CB17661C75AE";
shapes = (
{
closed = 1;
nodes = (
(494,-13,o),
(531,9,o),
(574,9,cs),
(612,9,o),
(633,6,o),
(648,-1,c),
(685,79,l),
(662,91,o),
(634,97,o),
(585,97,cs),
(529,97,o),
(488,75,o),
(441,75,cs),
(382,75,o),
(364,107,o),
(364,207,cs),
(364,266.699,o),
(369.727,326.398,o),
(376.001,386.098,c),
(442.483,386.759,o),
(465.156,390.808,o),
(487,399,c),
(505,296,o),
(567,240,o),
(666,240,cs),
(790,240,o),
(878,321,o),
(878,436,cs),
(878,536,o),
(808,606,o),
(706,606,cs),
(636,606,o),
(589,572,o),
(535,530,cs),
(500.322,502.82,o),
(464.766,474.761,o),
(384.696,470.523,c),
(388.867,514.682,o),
(392,558.841,o),
(392,603,cs),
(392,650,o),
(389,728,o),
(384,762,c),
(445,770,o),
(489,773,o),
(518,773,cs),
(554,773,o),
(579,769,o),
(603,763,c),
(628,854,l),
(606,860,o),
(582,863,o),
(546,863,cs),
(422,863,o),
(305,835,o),
(187,835,cs),
(147,835,o),
(111,838,o),
(72,850,c),
(45,759,l),
(84,749,o),
(121,744,o),
(157,744,cs),
(183,744,o),
(226,748,o),
(276,751,c),
(282,707,o),
(284,629,o),
(284,588,cs),
(284,457,o),
(258,333,o),
(258,211,cs),
(258,53,o),
(308,-13,o),
(427,-13,cs)
);
},
{
closed = 1;
nodes = (
(613,328,o),
(581,362,o),
(569,448,c),
(629,497,o),
(659,512,o),
(693,512,cs),
(746,512,o),
(776,480,o),
(776,423,cs),
(776,362,o),
(740,328,o),
(678,328,cs)
);
}
);
width = 923;
},
{
layerId = "953CDB83-177D-4B72-9B41-8425D0D02E2F";
shapes = (
{
closed = 1;
nodes = (
(458,-14,o),
(502,9,o),
(549,9,cs),
(562,9,o),
(600,8,o),
(610,5,c),
(630,49,l),
(616,55,o),
(577,57,o),
(560,57,cs),
(510,57,o),
(465,32,o),
(417,32,cs),
(341,32,o),
(318,70,o),
(318,193,cs),
(318,259.631,o),
(324.204,325.803,o),
(330.665,392.176,c),
(383.533,393.285,o),
(418.49,399.842,o),
(451,417,c),
(470,298,o),
(526,236,o),
(611,236,cs),
(723,236,o),
(802,315,o),
(802,421,cs),
(802,511,o),
(743,576,o),
(653,576,cs),
(591,576,o),
(544,542,o),
(496,502,cs),
(456.504,469.087,o),
(419.661,437.942,o),
(334.744,434.345,c),
(340.255,492.489,o),
(345,550.893,o),
(345,610,cs),
(345,659,o),
(341,709,o),
(333,757,c),
(412,767,o),
(463,772,o),
(494,772,cs),
(520,772,o),
(543,769,o),
(561,764,c),
(575,817,l),
(560,818,o),
(543,821,o),
(521,821,cs),
(401,821,o),
(283,790,o),
(164,790,cs),
(128,790,o),
(94,793,o),
(62,802,c),
(48,751,l),
(76,743,o),
(104,742,o),
(132,742,cs),
(158,742,o),
(208,745,o),
(272,751,c),
(278,689,o),
(281,640,o),
(281,596,cs),
(281,462,o),
(254,331,o),
(254,197,cs),
(254,49,o),
(298,-14,o),
(401,-14,cs)
);
},
{
closed = 1;
nodes = (
(547,283,o),
(507,329,o),
(492,443,c),
(564,505,o),
(599,523,o),
(640,523,cs),
(706,523,o),
(744,481,o),
(744,408,cs),
(744,327,o),
(700,283,o),
(623,283,cs)
);
}
);
width = 849;
}
);
metricLeft = "pi-ethiopic";
metricRight = "kwa-ethiopic";
unicode = 124925;
}
{
glyphname = acutecomb.case;
layers = (
{
anchors = (
{
name = _top;
pos = (96,758);
},
{
name = top;
pos = (198,1060);
}
);
layerId = "9E010061-AAF6-435A-AC72-EA6F5DDC7760";
shapes = (
{
closed = 1;
nodes = (
(151,876,l),
(213,921,o),
(317,1015,o),
(350,1048,c),
(350,1060,l),
(173,1060,l),
(140,1011,o),
(85,942,o),
(46,890,c),
(46,876,l)
);
}
);
vertWidth = 1357.3098;
width = 395;
},
{
anchors = (
{
name = _top;
pos = (68,758);
},
{
name = top;
pos = (151,1060);
}
);
layerId = "953CDB83-177D-4B72-9B41-8425D0D02E2F";
shapes = (
{
closed = 1;
nodes = (
(88,876,l),
(130,916,o),
(207,998,o),
(256,1049,c),
(256,1060,l),
(183,1060,l),
(147,1011,o),
(68,917,o),
(46,886,c),
(46,876,l)
);
}
);
vertWidth = 770.3388;
width = 301;
},
{
anchors = (
{
name = _top;
pos = (85,758);
},
{
name = top;
pos = (166,1060);
}
);
layerId = "C85E24C5-F5D5-436B-96A2-CB17661C75AE";
shapes = (
{
closed = 1;
nodes = (
(115,876,l),
(163,912,o),
(250,1003,o),
(287,1048,c),
(287,1060,l),
(161,1060,l),
(133,1010,o),
(71,921,o),
(46,889,c),
(46,876,l)
);
}
);
vertWidth = 207.6228;
width = 331;
}
);
note = acute;
userData = {
KernOnSpecialSpacing = {
L = NoKerning;
R = NoKerning;
};
};
}
{
glyphname = brevecomb_acutecomb.case;
layers = (
{
anchors = (
{
name = _top;
pos = (256.248,760.631);
},
{
name = top;
pos = (160.248,1360.631);
}
);
layerId = "9E010061-AAF6-435A-AC72-EA6F5DDC7760";
shapes = (
{
closed = 1;
nodes = (
(360.562,853,o),
(429.827,915.589,o),
(434,1003.212,c),
(358.893,1003.212,l),
(353.886,956.479,o),
(306.319,945.631,o),
(256.248,945.631,cs),
(201.171,945.631,o),
(159.444,951.473,o),
(155.272,1003.212,c),
(81,1003.212,l),
(85.173,913.085,o),
(149.431,853,o),
(255.414,853,cs)
);
},
{
closed = 1;
nodes = (
(275.549,1043.072,l),
(322.814,1077.378,o),
(402.098,1149.038,o),
(427.255,1174.195,c),
(427.255,1183.343,l),
(322.814,1183.343,l),
(297.657,1145.989,o),
(255.728,1093.387,o),
(225.997,1053.745,c),
(225.997,1043.072,l)
);
}
);
width = 514;
},
{
anchors = (
{
name = _top;
pos = (229,758);
},
{
name = top;
pos = (310,1344);
}
);
layerId = "C85E24C5-F5D5-436B-96A2-CB17661C75AE";
shapes = (
{
closed = 1;
nodes = (
(316,853,o),
(383,916,o),
(389,1009,c),
(325,1009,l),
(317,952,o),
(270,933,o),
(227,933,cs),
(176,933,o),
(137,949,o),
(131,1009,c),
(66,1009,l),
(71,912,o),
(132,853,o),
(224,853,cs)
);
},
{
closed = 1;
nodes = (
(239.509,1023.081,l),
(276.471,1051.939,o),
(343.465,1124.888,o),
(371.957,1160.961,c),
(371.957,1170.581,l),
(274.931,1170.581,l),
(253.37,1130.499,o),
(205.627,1059.154,o),
(186.376,1033.502,c),
(186.376,1023.081,l)
);
}
);
width = 455;
},
{
anchors = (
{
name = _top;
pos = (203,758);
},
{
name = top;
pos = (121,1334);
}
);
layerId = "953CDB83-177D-4B72-9B41-8425D0D02E2F";
shapes = (
{
closed = 1;
nodes = (
(274,853,o),
(335,904,o),
(341,992,c),
(298,992,l),
(290,931,o),
(250,902,o),
(202,902,cs),
(153,902,o),
(116,931,o),
(109,992,c),
(66,992,l),
(71,904,o),
(127,853,o),
(201,853,cs)
);
},
{
closed = 1;
nodes = (
(220.923,998.345,l),
(264.648,1040.45,o),
(304.471,1087.131,o),
(343.338,1128.428,c),
(343.338,1137.335,l),
(285.847,1137.335,l),
(253.458,1097.658,o),
(220.113,1048.548,o),
(185.295,1006.442,c),
(185.295,998.345,l)
);
}
);
width = 407;
}
);
}
{
glyphname = brevecomb_acutecomb;
layers = (
{
anchors = (
{
name = _top;
pos = (257,580);
},
{
name = top;
pos = (359,1180);
}
);
layerId = "9E010061-AAF6-435A-AC72-EA6F5DDC7760";
shapes = (
{
closed = 1;
nodes = (
(360.562,668,o),
(429.827,730.589,o),
(434,818.212,c),
(358.893,818.212,l),
(353.886,771.479,o),
(306.319,760.631,o),
(256.248,760.631,cs),
(201.171,760.631,o),
(159.444,766.473,o),
(155.272,818.212,c),
(81,818.212,l),
(85.173,728.085,o),
(149.431,668,o),
(255.414,668,cs)
);
},
{
closed = 1;
nodes = (
(275.549,858.072,l),
(322.814,892.378,o),
(402.098,964.038,o),
(427.255,989.195,c),
(427.255,998.343,l),
(322.814,998.343,l),
(297.657,960.989,o),
(255.728,908.387,o),
(225.997,868.745,c),
(225.997,858.072,l)
);
}
);
width = 514;
},
{
anchors = (
{
name = _top;
pos = (229,570);
},
{
name = top;
pos = (310,1156);
}
);
layerId = "C85E24C5-F5D5-436B-96A2-CB17661C75AE";
shapes = (
{
closed = 1;
nodes = (
(316,698,o),
(383,761,o),
(389,854,c),
(325,854,l),
(317,797,o),
(270,778,o),
(227,778,cs),
(176,778,o),
(137,794,o),
(131,854,c),
(66,854,l),
(71,757,o),
(132,698,o),
(224,698,cs)
);
},
{
closed = 1;
nodes = (
(239.509,868.081,l),
(276.471,896.939,o),
(343.465,969.888,o),
(371.957,1005.961,c),
(371.957,1015.581,l),
(274.931,1015.581,l),
(253.37,975.499,o),
(205.627,904.154,o),
(186.376,878.502,c),
(186.376,868.081,l)
);
}
);
width = 455;
},
{
anchors = (
{
name = _top;
pos = (203,580);
},
{
name = top;
pos = (286,1139);
}
);
layerId = "953CDB83-177D-4B72-9B41-8425D0D02E2F";
shapes = (
{
closed = 1;
nodes = (
(274,698,o),
(335,749,o),
(341,837,c),
(298,837,l),
(290,776,o),
(250,747,o),
(202,747,cs),
(153,747,o),
(116,776,o),
(109,837,c),
(66,837,l),
(71,749,o),
(127,698,o),
(201,698,cs)
);
},
{
closed = 1;
nodes = (
(220.923,843.345,l),
(264.648,885.45,o),
(304.471,932.131,o),
(343.338,973.428,c),
(343.338,982.335,l),
(285.847,982.335,l),
(253.458,942.658,o),
(220.113,893.548,o),
(185.295,851.442,c),
(185.295,843.345,l)
);
}
);
width = 407;
}
);
}
{
glyphname = brevecomb_gravecomb.case;
layers = (
{
anchors = (
{
name = _top;
pos = (257,580);
},
{
name = top;
pos = (161,1180);
}
);
layerId = "9E010061-AAF6-435A-AC72-EA6F5DDC7760";
shapes = (
{
closed = 1;
nodes = (
(371.459,668,o),
(448.047,737.206,o),
(452.661,834.094,c),
(369.613,834.094,l),
(364.077,782.42,o),
(311.481,770.425,o),
(256.116,770.425,cs),
(195.215,770.425,o),
(149.077,776.884,o),
(144.464,834.094,c),
(62.339,834.094,l),
(66.953,734.438,o),
(138.005,668,o),
(255.193,668,cs)
);
},
{
closed = 1;
nodes = (
(308.368,848.072,l),
(308.368,858.745,l),
(278.637,898.387,o),
(236.708,950.989,o),
(211.551,988.343,c),
(107.11,988.343,l),
(107.11,979.195,l),
(132.267,954.038,o),
(211.551,882.378,o),
(258.816,848.072,c)
);
}
);
width = 514;
},
{
anchors = (
{
name = _top;
pos = (229,570);
},
{
name = top;
pos = (145,1156);
}
);
layerId = "C85E24C5-F5D5-436B-96A2-CB17661C75AE";
shapes = (
{
closed = 1;
nodes = (
(317,698,o),
(384,761,o),
(390,854,c),
(326,854,l),
(318,797,o),
(271,778,o),
(228,778,cs),
(177,778,o),
(138,794,o),
(132,854,c),
(67,854,l),
(72,757,o),
(133,698,o),
(225,698,cs)
);
},
{
closed = 1;
nodes = (
(281.404,868.081,l),
(281.404,878.502,l),
(262.153,904.154,o),
(214.41,975.499,o),
(192.849,1015.581,c),
(95.823,1015.581,l),
(95.823,1005.961,l),
(124.315,969.888,o),
(191.309,896.939,o),
(228.271,868.081,c)
);
}
);
width = 455;
},
{
anchors = (
{
name = _top;
pos = (203,580);
},
{
name = top;
pos = (121,1139);
}
);
layerId = "953CDB83-177D-4B72-9B41-8425D0D02E2F";
shapes = (
{
closed = 1;
nodes = (
(274,698,o),
(335,749,o),
(341,837,c),
(298,837,l),
(290,776,o),
(250,747,o),
(202,747,cs),
(153,747,o),
(116,776,o),
(109,837,c),
(66,837,l),
(71,749,o),
(127,698,o),
(201,698,cs)
);
},
{
closed = 1;
nodes = (
(231.879,843.345,l),
(231.879,851.442,l),
(197.061,893.548,o),
(163.716,942.658,o),
(131.327,982.335,c),
(73.836,982.335,l),
(73.836,973.428,l),
(112.703,932.131,o),
(152.526,885.45,o),
(196.251,843.345,c)
);
}
);
width = 407;
}
);
}
{
glyphname = brevecomb_hookabovecomb.case;
layers = (
{
anchors = (
{
name = _top;
pos = (256.248,760.631);
},
{
name = top;
pos = (256.248,1217.813);
}
);
layerId = "9E010061-AAF6-435A-AC72-EA6F5DDC7760";
shapes = (
{
closed = 1;
nodes = (
(359.81,848.631,o),
(429.075,911.22,o),
(433.248,998.843,c),
(358.141,998.843,l),
(353.134,952.11,o),
(305.567,941.262,o),
(255.496,941.262,cs),
(200.419,941.262,o),
(158.692,947.104,o),
(154.52,998.843,c),
(80.248,998.843,l),
(84.421,908.716,o),
(148.679,848.631,o),
(254.662,848.631,cs)
);
},
{
closed = 1;
nodes = (
(337.73,1036.567,o),
(374.605,1079.424,o),
(374.605,1133.935,cs),
(374.605,1198.066,o),
(322.499,1236.544,o),
(235.923,1236.544,cs),
(210.271,1236.544,o),
(189.428,1232.536,o),
(174.197,1228.528,c),
(174.197,1150.769,l),
(191.032,1155.579,o),
(216.684,1158.786,o),
(235.923,1158.786,cs),
(276.004,1158.786,o),
(291.235,1151.571,o),
(291.235,1128.324,cs),
(291.235,1105.076,o),
(268.79,1087.441,o),
(199.849,1078.623,c),
(223.894,1022.382,l)
);
}
);
width = 514;
},
{
anchors = (
{
name = _top;
pos = (229,758);
},
{
name = top;
pos = (229,1229);
}
);
layerId = "C85E24C5-F5D5-436B-96A2-CB17661C75AE";
shapes = (
{
closed = 1;
nodes = (
(316,853,o),
(383,916,o),
(389,1009,c),
(325,1009,l),
(317,952,o),
(270,933,o),
(227,933,cs),
(176,933,o),
(137,949,o),
(131,1009,c),
(66,1009,l),
(71,912,o),
(132,853,o),
(224,853,cs)
);
},
{
closed = 1;
nodes = (
(305.424,1023.655,o),
(341.402,1081.388,o),
(341.402,1121.754,cs),
(341.402,1191.078,o),
(295.771,1223.199,o),
(205.734,1223.199,cs),
(186.428,1223.199,o),
(164.49,1222.322,o),
(153.96,1217.934,c),
(153.96,1153.875,l),
(167.123,1156.508,o),
(189.061,1160.018,o),
(216.794,1160.018,cs),
(244.875,1160.018,o),
(270.323,1154.753,o),
(270.323,1122.284,cs),
(270.323,1085.428,o),
(230.834,1074.021,o),
(176.428,1068.756,c),
(199.244,1025.757,l)
);
}
);
width = 455;
},
{
anchors = (
{
name = _top;
pos = (203,758);
},
{
name = top;
pos = (203,1229);
}
);
layerId = "953CDB83-177D-4B72-9B41-8425D0D02E2F";
shapes = (
{
closed = 1;
nodes = (
(274,853,o),
(335,904,o),
(341,992,c),
(298,992,l),
(290,931,o),
(250,902,o),
(202,902,cs),
(153,902,o),
(116,931,o),
(109,992,c),
(66,992,l),
(71,904,o),
(127,853,o),
(201,853,cs)
);
},
{
closed = 1;
nodes = (
(261.723,1032.562,o),
(301.286,1075.232,o),
(301.286,1119.095,cs),
(301.286,1178.439,o),
(253.123,1218.002,o),
(173.997,1218.002,cs),
(152.496,1218.002,o),
(135.295,1217.142,o),
(122.394,1213.702,c),
(122.394,1173.279,l),
(137.015,1178.439,o),
(154.216,1178.439,o),
(175.717,1178.439,cs),
(225.601,1178.439,o),
(258.283,1159.518,o),
(258.283,1120.815,cs),
(258.283,1082.973,o),
(216.14,1064.912,o),
(155.936,1063.191,c),
(166.706,1029.122,l)
);
}
);
width = 407;
}
);
}
{
glyphname = brevecomb_hookabovecomb;
layers = (
{
anchors = (
{
name = _top;
pos = (257,580);
},
{
name = top;
pos = (257,1185);
}
);
layerId = "9E010061-AAF6-435A-AC72-EA6F5DDC7760";
shapes = (
{
closed = 1;
nodes = (
(360.562,668,o),
(429.827,730.589,o),
(434,818.212,c),
(358.893,818.212,l),
(353.886,771.479,o),
(306.319,760.631,o),
(256.248,760.631,cs),
(201.171,760.631,o),
(159.444,766.473,o),
(155.272,818.212,c),
(81,818.212,l),
(85.173,728.085,o),
(149.431,668,o),
(255.414,668,cs)
);
},
{
closed = 1;
nodes = (
(338.482,885.936,o),
(375.357,928.793,o),
(375.357,983.304,cs),
(375.357,1047.435,o),
(323.251,1085.913,o),
(236.675,1085.913,cs),
(211.023,1085.913,o),
(190.18,1081.905,o),
(174.949,1077.897,c),
(174.949,1000.138,l),
(191.784,1004.948,o),
(217.436,1008.155,o),
(236.675,1008.155,cs),
(276.756,1008.155,o),
(291.987,1000.94,o),
(291.987,977.693,cs),
(291.987,954.445,o),
(269.542,936.81,o),
(200.601,927.992,c),
(224.646,871.751,l)
);
}
);
width = 514;
},
{
anchors = (
{
name = _top;
pos = (229,570);
},
{
name = top;
pos = (229,1118);
}
);
layerId = "C85E24C5-F5D5-436B-96A2-CB17661C75AE";
shapes = (
{
closed = 1;
nodes = (
(316,698,o),
(383,761,o),
(389,854,c),
(325,854,l),
(317,797,o),
(270,778,o),
(227,778,cs),
(176,778,o),
(137,794,o),
(131,854,c),
(66,854,l),
(71,757,o),
(132,698,o),
(224,698,cs)
);
},
{
closed = 1;
nodes = (
(305.424,888.655,o),
(341.402,946.388,o),
(341.402,986.754,cs),
(341.402,1056.078,o),
(295.771,1088.199,o),
(205.734,1088.199,cs),
(186.428,1088.199,o),
(164.49,1087.322,o),
(153.96,1082.934,c),
(153.96,1018.875,l),
(167.123,1021.508,o),
(189.061,1025.018,o),
(216.794,1025.018,cs),
(244.875,1025.018,o),
(270.323,1019.753,o),
(270.323,987.284,cs),
(270.323,950.428,o),
(230.834,939.021,o),
(176.428,933.756,c),
(199.244,890.757,l)
);
}
);
width = 455;
},
{
anchors = (
{
name = _top;
pos = (203,563);
},
{
name = top;
pos = (203,1080);
}
);
layerId = "953CDB83-177D-4B72-9B41-8425D0D02E2F";
shapes = (
{
closed = 1;
nodes = (
(274,698,o),
(335,749,o),
(341,837,c),
(298,837,l),
(290,776,o),
(250,747,o),
(202,747,cs),
(153,747,o),
(116,776,o),
(109,837,c),
(66,837,l),
(71,749,o),
(127,698,o),
(201,698,cs)
);
},
{
closed = 1;
nodes = (
(261.723,877.562,o),
(301.286,920.232,o),
(301.286,964.095,cs),
(301.286,1023.439,o),
(253.123,1063.002,o),
(173.997,1063.002,cs),
(152.496,1063.002,o),
(135.295,1062.142,o),
(122.394,1058.702,c),
(122.394,1018.279,l),
(137.015,1023.439,o),
(154.216,1023.439,o),
(175.717,1023.439,cs),
(225.601,1023.439,o),
(258.283,1004.518,o),
(258.283,965.815,cs),
(258.283,927.973,o),
(216.14,909.912,o),
(155.936,908.191,c),
(166.706,874.122,l)
);
}
);
width = 407;
}
);
}
{
glyphname = brevecomb_tildecomb.case;
layers = (
{
anchors = (
{
name = _top;
pos = (257,758);
},
{
name = top;
pos = (257,1229);
}
);
layerId = "9E010061-AAF6-435A-AC72-EA6F5DDC7760";
shapes = (
{
closed = 1;
nodes = (
(360.562,846,o),
(429.827,908.589,o),
(434,996.212,c),
(358.893,996.212,l),
(353.886,949.479,o),
(306.319,938.631,o),
(256.248,938.631,cs),
(201.171,938.631,o),
(159.444,944.473,o),
(155.272,996.212,c),
(81,996.212,l),
(85.173,906.085,o),
(149.431,846,o),
(255.414,846,cs)
);
},
{
closed = 1;
nodes = (
(158.09,1061,l),
(165.34,1094.873,o),
(180.565,1113.049,o),
(200.864,1113.049,cs),
(252.913,1113.049,o),
(261.037,1061.826,o),
(319.611,1061.826,cs),
(373.985,1061.826,o),
(418.933,1108.918,o),
(425.458,1200.622,c),
(359.635,1200.622,l),
(352.385,1165.923,o),
(334.26,1151.052,o),
(316.861,1151.052,cs),
(267.712,1151.052,o),
(257.413,1198.97,o),
(198.114,1198.97,cs),
(140.115,1198.97,o),
(98.067,1152.705,o),
(91.542,1061,c)
);
}
);
width = 514;
},
{
anchors = (
{
name = _top;
pos = (229,758);
},
{
name = top;
pos = (229,1229);
}
);
layerId = "C85E24C5-F5D5-436B-96A2-CB17661C75AE";
shapes = (
{
closed = 1;
nodes = (
(316,853,o),
(383,916,o),
(389,1009,c),
(325,1009,l),
(317,952,o),
(270,933,o),
(227,933,cs),
(176,933,o),
(137,949,o),
(131,1009,c),
(66,1009,l),
(71,912,o),
(132,853,o),
(224,853,cs)
);
},
{
closed = 1;
nodes = (
(135.629,1060,l),
(144.014,1098.004,o),
(157.736,1115.353,o),
(184.418,1115.353,cs),
(229.397,1115.353,o),
(243.881,1061.652,o),
(298.77,1061.652,cs),
(353.659,1061.652,o),
(398.726,1107.092,o),
(406.35,1183.099,c),
(352.134,1183.099,l),
(343.748,1145.922,o),
(328.501,1126.92,o),
(303.344,1126.92,cs),
(259.89,1126.92,o),
(243.881,1183.099,o),
(187.468,1183.099,cs),
(132.579,1183.099,o),
(87.511,1137.66,o),
(80.65,1060,c)
);
}
);
width = 455;
},
{
anchors = (
{
name = _top;
pos = (203,758);
},
{
name = top;
pos = (203,1223);
}
);
layerId = "953CDB83-177D-4B72-9B41-8425D0D02E2F";
shapes = (
{
closed = 1;
nodes = (
(274,853,o),
(335,904,o),
(341,992,c),
(298,992,l),
(290,931,o),
(250,902,o),
(202,902,cs),
(153,902,o),
(116,931,o),
(109,992,c),
(66,992,l),
(71,904,o),
(127,853,o),
(201,853,cs)
);
},
{
closed = 1;
nodes = (
(101.447,1055,l),
(99.843,1098.454,o),
(128.129,1113.7,o),
(143.297,1113.7,cs),
(191.325,1113.7,o),
(199.71,1055,o),
(255.361,1055,cs),
(304.913,1055,o),
(348.165,1099.295,o),
(345.798,1170.272,c),
(303.31,1170.272,l),
(304.913,1116.829,o),
(275.102,1101.582,o),
(259.173,1101.582,cs),
(212.669,1101.582,o),
(201.997,1162.57,o),
(145.584,1162.57,cs),
(106.021,1162.57,o),
(57.835,1137.492,o),
(60.202,1055,c)
);
}
);
width = 407;
}
);
}
{
glyphname = brevecomb_tildecomb;
layers = (
{
anchors = (
{
name = _top;
pos = (257,580);
},
{
name = top;
pos = (257,1122);
}
);
layerId = "9E010061-AAF6-435A-AC72-EA6F5DDC7760";
shapes = (
{
closed = 1;
nodes = (
(371.459,668,o),
(448.047,737.206,o),
(452.661,834.094,c),
(369.613,834.094,l),
(364.077,782.42,o),
(311.481,770.425,o),
(256.116,770.425,cs),
(195.215,770.425,o),
(149.077,776.884,o),
(144.464,834.094,c),
(62.339,834.094,l),
(66.953,734.438,o),
(138.005,668,o),
(255.193,668,cs)
);
},
{
closed = 1;
nodes = (
(158.09,913,l),
(165.34,946.873,o),
(180.565,965.049,o),
(200.864,965.049,cs),
(252.913,965.049,o),
(261.037,913.826,o),
(319.611,913.826,cs),
(373.985,913.826,o),
(418.933,960.918,o),
(425.458,1052.622,c),
(359.635,1052.622,l),
(352.385,1017.923,o),
(334.26,1003.052,o),
(316.861,1003.052,cs),
(267.712,1003.052,o),
(257.413,1050.97,o),
(198.114,1050.97,cs),
(140.115,1050.97,o),
(98.067,1004.705,o),
(91.542,913,c)
);
}
);
width = 514;
},
{
anchors = (
{
name = _top;
pos = (229,580);
},
{
name = top;
pos = (229,1086);
}
);
layerId = "C85E24C5-F5D5-436B-96A2-CB17661C75AE";
shapes = (
{
closed = 1;
nodes = (
(316,698,o),
(383,761,o),
(389,854,c),
(325,854,l),
(317,797,o),
(270,778,o),
(227,778,cs),
(176,778,o),
(137,794,o),
(131,854,c),
(66,854,l),
(71,757,o),
(132,698,o),
(224,698,cs)
);
},
{
closed = 1;
nodes = (
(135.629,945,l),
(144.014,983.004,o),
(157.736,1000.353,o),
(184.418,1000.353,cs),
(229.397,1000.353,o),
(243.881,946.652,o),
(298.77,946.652,cs),
(353.659,946.652,o),
(398.726,992.092,o),
(406.35,1068.099,c),
(352.134,1068.099,l),
(343.748,1030.922,o),
(328.501,1011.92,o),
(303.344,1011.92,cs),
(259.89,1011.92,o),
(243.881,1068.099,o),
(187.468,1068.099,cs),
(132.579,1068.099,o),
(87.511,1022.66,o),
(80.65,945,c)
);
}
);
width = 455;
},
{
anchors = (
{
name = _top;
pos = (203,580);
},
{
name = top;
pos = (203,1028);
}
);
layerId = "953CDB83-177D-4B72-9B41-8425D0D02E2F";
shapes = (
{
closed = 1;
nodes = (
(274,698,o),
(335,749,o),
(341,837,c),
(298,837,l),
(290,776,o),
(250,747,o),
(202,747,cs),
(153,747,o),
(116,776,o),
(109,837,c),
(66,837,l),
(71,749,o),
(127,698,o),
(201,698,cs)
);
},
{
closed = 1;
nodes = (
(112.447,920,l),
(110.843,963.454,o),
(139.129,978.7,o),
(154.297,978.7,cs),
(202.325,978.7,o),
(210.71,920,o),
(266.361,920,cs),
(315.913,920,o),
(359.165,964.295,o),
(356.798,1035.272,c),
(314.31,1035.272,l),
(315.913,981.829,o),
(286.102,966.582,o),
(270.173,966.582,cs),
(223.669,966.582,o),
(212.997,1027.57,o),
(156.584,1027.57,cs),
(117.021,1027.57,o),
(68.835,1002.492,o),
(71.202,920,c)
);
}
);
width = 407;
}
);
}
{
glyphname = caroncomb.alt;
layers = (
{
anchors = (
{
name = _topright;
pos = (61,757);
}
);
layerId = "9E010061-AAF6-435A-AC72-EA6F5DDC7760";
shapes = (
{
closed = 1;
nodes = (
(140,580,l),
(156,638,o),
(172,697,o),
(178,737,c),
(178,757,l),
(60,757,l),
(55,710,o),
(49,629,o),
(44,591,c),
(44,580,l)
);
}
);
vertWidth = 1357.3098;
width = 222;
},
{
anchors = (
{
name = _topright;
pos = (68,757);
}
);
layerId = "953CDB83-177D-4B72-9B41-8425D0D02E2F";
shapes = (
{
closed = 1;
nodes = (
(80,572,l),
(105,630,o),
(122,699,o),
(133,748,c),
(133,757,l),
(67,757,l),
(62,710,o),
(50,621,o),
(44,583,c),
(44,572,l)
);
}
);
vertWidth = 770.3388;
width = 177;
},
{
anchors = (
{
name = _topright;
pos = (68,757);
}
);
layerId = "C85E24C5-F5D5-436B-96A2-CB17661C75AE";
shapes = (
{
closed = 1;
nodes = (
(105,572,l),
(128,630,o),
(145,699,o),
(156,748,c),
(156,757,l),
(67,757,l),
(62,710,o),
(50,619,o),
(44,583,c),
(44,572,l)
);
}
);
vertWidth = 207.6228;
width = 200;
}
);
metricLeft = hyphen;
metricRight = "=|";
note = caroncommaaccent;
userData = {
KernOnSpecialSpacing = {
L = NoKerning;
R = NoKerning;
};
};
}
{
glyphname = circumflexcomb_acutecomb.case;
layers = (
{
anchors = (
{
name = _top;
pos = (282,758);
},
{
name = top;
pos = (583.326,1185.628);
}
);
layerId = "9E010061-AAF6-435A-AC72-EA6F5DDC7760";
shapes = (
{
closed = 1;
nodes = (
(185.011,853,l),
(210.824,873.593,o),
(242.01,915.825,o),
(278.718,950.743,c),
(314.532,915.825,o),
(359.299,873.593,o),
(386.008,853,c),
(479.123,853,l),
(479.123,865.535,l),
(448.833,903.139,o),
(388.845,970.289,o),
(360.194,1018.638,c),
(200.824,1018.638,l),
(174.859,978.347,o),
(132.034,913.883,o),
(91,865.535,c),
(91,853,l)
);
},
{
closed = 1;
nodes = (
(465.549,986.072,l),
(512.814,1020.378,o),
(592.098,1092.038,o),
(617.255,1117.195,c),
(617.255,1126.343,l),
(512.814,1126.343,l),
(487.657,1088.989,o),
(445.728,1036.387,o),
(415.997,996.745,c),
(415.997,986.072,l)
);
}
);
width = 556;
},
{
anchors = (
{
name = _top;
pos = (243,758);
},
{
name = top;
pos = (486.021,1220.081);
}
);
layerId = "C85E24C5-F5D5-436B-96A2-CB17661C75AE";
shapes = (
{
closed = 1;
nodes = (
(137,894,l),
(166,920,o),
(200,958,o),
(242,1000,c),
(282,958,o),
(316,918,o),
(347,894,c),
(419,894,l),
(419,906,l),
(379,963,o),
(331,1032,o),
(297,1078,c),
(188,1078,l),
(157,1032,o),
(103,963,o),
(66,906,c),
(66,894,l)
);
},
{
closed = 1;
nodes = (
(418.863,1044.081,l),
(455.825,1072.939,o),
(522.819,1145.888,o),
(551.311,1181.961,c),
(551.311,1191.581,l),
(454.285,1191.581,l),
(432.724,1151.499,o),
(384.981,1080.154,o),
(365.73,1054.502,c),
(365.73,1044.081,l)
);
}
);
width = 485;
},
{
anchors = (
{
name = _top;
pos = (212,758);
},
{
name = top;
pos = (423.628,1229.2);
}
);
layerId = "953CDB83-177D-4B72-9B41-8425D0D02E2F";
shapes = (
{
closed = 1;
nodes = (
(97.356,894,l),
(128.114,927,o),
(170.057,977,o),
(212,1019,c),
(252.079,977,o),
(292.158,927,o),
(324.78,894,c),
(366.723,894,l),
(366.723,904,l),
(319.188,966,o),
(269.788,1032,o),
(239.962,1077,c),
(186.834,1077,l),
(152.348,1032,o),
(96.424,953,o),
(57.277,904,c),
(57.277,894,l)
);
},
{
closed = 1;
nodes = (
(334.965,1039.345,l),
(378.69,1081.45,o),
(418.513,1128.131,o),
(457.38,1169.428,c),
(457.38,1178.335,l),
(399.889,1178.335,l),
(367.5,1138.658,o),
(334.155,1089.548,o),
(299.337,1047.442,c),
(299.337,1039.345,l)
);
}
);
width = 424;
}
);
}
{
glyphname = circumflexcomb_acutecomb;
layers = (
{
anchors = (
{
name = _top;
pos = (282,580);
},
{
name = top;
pos = (583.326,1007.628);
}
);
layerId = "9E010061-AAF6-435A-AC72-EA6F5DDC7760";
shapes = (
{
closed = 1;
nodes = (
(185.011,675,l),
(210.824,695.593,o),
(242.01,737.825,o),
(278.718,772.743,c),
(314.532,737.825,o),
(359.299,695.593,o),
(386.008,675,c),
(479.123,675,l),
(479.123,687.535,l),
(448.833,725.139,o),
(388.845,792.289,o),
(360.194,840.638,c),
(200.824,840.638,l),
(174.859,800.347,o),
(132.034,735.883,o),
(91,687.535,c),
(91,675,l)
);
},
{
closed = 1;
nodes = (
(465.549,808.072,l),
(512.814,842.378,o),
(592.098,914.038,o),
(617.255,939.195,c),
(617.255,948.343,l),
(512.814,948.343,l),
(487.657,910.989,o),
(445.728,858.387,o),
(415.997,818.745,c),
(415.997,808.072,l)
);
}
);
width = 556;
},
{
anchors = (
{
name = _top;
pos = (243,570);
},
{
name = top;
pos = (486.021,1032.081);
}
);
layerId = "C85E24C5-F5D5-436B-96A2-CB17661C75AE";
shapes = (
{
closed = 1;
nodes = (
(137,698,l),
(166,724,o),
(200,762,o),
(242,804,c),
(282,762,o),
(316,722,o),
(347,698,c),
(419,698,l),
(419,710,l),
(379,767,o),
(331,836,o),
(297,882,c),
(188,882,l),
(157,836,o),
(103,767,o),
(66,710,c),
(66,698,l)
);
},
{
closed = 1;
nodes = (
(418.863,848.081,l),
(455.825,876.939,o),
(522.819,949.888,o),
(551.311,985.961,c),
(551.311,995.581,l),
(454.285,995.581,l),
(432.724,955.499,o),
(384.981,884.154,o),
(365.73,858.502,c),
(365.73,848.081,l)
);
}
);
width = 485;
},
{
anchors = (
{
name = _top;
pos = (212,563);
},
{
name = top;
pos = (423.628,1034.2);
}
);
layerId = "953CDB83-177D-4B72-9B41-8425D0D02E2F";
shapes = (
{
closed = 1;
nodes = (
(97.356,658,l),
(128.114,691,o),
(170.057,741,o),
(212,783,c),
(252.079,741,o),
(292.158,691,o),
(324.78,658,c),
(366.723,658,l),
(366.723,668,l),
(319.188,730,o),
(269.788,796,o),
(239.962,841,c),
(186.834,841,l),
(152.348,796,o),
(96.424,717,o),
(57.277,668,c),
(57.277,658,l)
);
},
{
closed = 1;
nodes = (
(334.965,803.345,l),
(378.69,845.45,o),
(418.513,892.131,o),
(457.38,933.428,c),
(457.38,942.335,l),
(399.889,942.335,l),
(367.5,902.658,o),
(334.155,853.548,o),
(299.337,811.442,c),
(299.337,803.345,l)
);
}
);
width = 424;
}
);
}
{
glyphname = circumflexcomb_gravecomb.case;
layers = (
{
anchors = (
{
name = _top;
pos = (280,580);
},
{
name = top;
pos = (184,1104);
}
);
layerId = "9E010061-AAF6-435A-AC72-EA6F5DDC7760";
shapes = (
{
closed = 1;
nodes = (
(185.011,675,l),
(210.824,695.593,o),
(242.01,737.825,o),
(278.718,772.743,c),
(314.532,737.825,o),
(359.299,695.593,o),
(386.008,675,c),
(479.123,675,l),
(479.123,687.535,l),
(448.833,725.139,o),
(388.845,792.289,o),
(360.194,840.638,c),
(200.824,840.638,l),
(174.859,800.347,o),
(132.034,735.883,o),
(91,687.535,c),
(91,675,l)
);
},
{
closed = 1;
nodes = (
(538.368,808.072,l),
(538.368,818.745,l),
(508.637,858.387,o),
(466.708,910.989,o),
(441.551,948.343,c),
(337.11,948.343,l),
(337.11,939.195,l),
(362.267,914.038,o),
(441.551,842.378,o),
(488.816,808.072,c)
);
}
);
width = 556;
},
{
anchors = (
{
name = _top;
pos = (243,580);
},
{
name = top;
pos = (159,1184);
}
);
layerId = "C85E24C5-F5D5-436B-96A2-CB17661C75AE";
shapes = (
{
closed = 1;
nodes = (
(137,698,l),
(166,724,o),
(200,762,o),
(242,804,c),
(282,762,o),
(316,722,o),
(347,698,c),
(419,698,l),
(419,710,l),
(379,767,o),
(331,836,o),
(297,882,c),
(188,882,l),
(157,836,o),
(103,767,o),
(66,710,c),
(66,698,l)
);
},
{
closed = 1;
nodes = (
(461.404,848.081,l),
(461.404,858.502,l),
(442.153,884.154,o),
(394.41,955.499,o),
(372.849,995.581,c),
(275.823,995.581,l),
(275.823,985.961,l),
(304.315,949.888,o),
(371.309,876.939,o),
(408.271,848.081,c)
);
}
);
width = 485;
},
{
anchors = (
{
name = _top;
pos = (212,580);
},
{
name = top;
pos = (130,1183);
}
);
layerId = "953CDB83-177D-4B72-9B41-8425D0D02E2F";
shapes = (
{
closed = 1;
nodes = (
(97.356,698,l),
(128.114,731,o),
(170.057,781,o),
(212,823,c),
(252.079,781,o),
(292.158,731,o),
(324.78,698,c),
(366.723,698,l),
(366.723,708,l),
(319.188,770,o),
(269.788,836,o),
(239.962,881,c),
(186.834,881,l),
(152.348,836,o),
(96.424,757,o),
(57.277,708,c),
(57.277,698,l)
);
},
{
closed = 1;
nodes = (
(401.879,843.345,l),
(401.879,851.442,l),
(367.061,893.548,o),
(333.716,942.658,o),
(301.327,982.335,c),
(243.836,982.335,l),
(243.836,973.428,l),
(282.703,932.131,o),
(322.526,885.45,o),
(366.251,843.345,c)
);
}
);
width = 424;
}
);
}
{
glyphname = circumflexcomb_gravecomb;
layers = (
{
anchors = (
{
name = _top;
pos = (280,580);
},
{
name = top;
pos = (184,1104);
}
);
layerId = "9E010061-AAF6-435A-AC72-EA6F5DDC7760";
shapes = (
{
closed = 1;
nodes = (
(185.011,675,l),
(210.824,695.593,o),
(242.01,737.825,o),
(278.718,772.743,c),
(314.532,737.825,o),
(359.299,695.593,o),
(386.008,675,c),
(479.123,675,l),
(479.123,687.535,l),
(448.833,725.139,o),
(388.845,792.289,o),
(360.194,840.638,c),
(200.824,840.638,l),
(174.859,800.347,o),
(132.034,735.883,o),
(91,687.535,c),
(91,675,l)
);
},
{
closed = 1;
nodes = (
(538.368,808.072,l),
(538.368,818.745,l),
(508.637,858.387,o),
(466.708,910.989,o),
(441.551,948.343,c),
(337.11,948.343,l),
(337.11,939.195,l),
(362.267,914.038,o),
(441.551,842.378,o),
(488.816,808.072,c)
);
}
);
width = 556;
},
{
anchors = (
{
name = _top;
pos = (243,580);
},
{
name = top;
pos = (159,1184);
}
);
layerId = "C85E24C5-F5D5-436B-96A2-CB17661C75AE";
shapes = (
{
closed = 1;
nodes = (
(137,698,l),
(166,724,o),
(200,762,o),
(242,804,c),
(282,762,o),
(316,722,o),
(347,698,c),
(419,698,l),
(419,710,l),
(379,767,o),
(331,836,o),
(297,882,c),
(188,882,l),
(157,836,o),
(103,767,o),
(66,710,c),
(66,698,l)
);
},
{
closed = 1;
nodes = (
(461.404,848.081,l),
(461.404,858.502,l),
(442.153,884.154,o),
(394.41,955.499,o),
(372.849,995.581,c),
(275.823,995.581,l),
(275.823,985.961,l),
(304.315,949.888,o),
(371.309,876.939,o),
(408.271,848.081,c)
);
}
);
width = 485;
},
{
anchors = (
{
name = _top;
pos = (212,563);
},
{
name = top;
pos = (130,1183);
}
);
layerId = "953CDB83-177D-4B72-9B41-8425D0D02E2F";
shapes = (
{
closed = 1;
nodes = (
(97.356,658,l),
(128.114,691,o),
(170.057,741,o),
(212,783,c),
(252.079,741,o),
(292.158,691,o),
(324.78,658,c),
(366.723,658,l),
(366.723,668,l),
(319.188,730,o),
(269.788,796,o),
(239.962,841,c),
(186.834,841,l),
(152.348,796,o),
(96.424,717,o),
(57.277,668,c),
(57.277,658,l)
);
},
{
closed = 1;
nodes = (
(401.879,803.345,l),
(401.879,811.442,l),
(367.061,853.548,o),
(333.716,902.658,o),
(301.327,942.335,c),
(243.836,942.335,l),
(243.836,933.428,l),
(282.703,892.131,o),
(322.526,845.45,o),
(366.251,803.345,c)
);
}
);
width = 424;
}
);
}
{
glyphname = circumflexcomb_hookabovecomb.case;
layers = (
{
anchors = (
{
name = _top;
pos = (285,758);
},
{
name = top;
pos = (280,1287);
}
);
layerId = "9E010061-AAF6-435A-AC72-EA6F5DDC7760";
shapes = (
{
closed = 1;
nodes = (
(185.011,853,l),
(210.824,873.593,o),
(242.01,915.825,o),
(278.718,950.743,c),
(314.532,915.825,o),
(359.299,873.593,o),
(386.008,853,c),
(479.123,853,l),
(479.123,865.535,l),
(448.833,903.139,o),
(388.845,970.289,o),
(360.194,1018.638,c),
(200.824,1018.638,l),
(174.859,978.347,o),
(132.034,913.883,o),
(91,865.535,c),
(91,853,l)
);
},
{
closed = 1;
nodes = (
(348.482,1063.936,o),
(385.357,1106.793,o),
(385.357,1161.304,cs),
(385.357,1225.435,o),
(333.251,1263.913,o),
(246.675,1263.913,cs),
(221.023,1263.913,o),
(200.18,1259.905,o),
(184.949,1255.897,c),
(184.949,1178.138,l),
(201.784,1182.948,o),
(227.436,1186.155,o),
(246.675,1186.155,cs),
(286.756,1186.155,o),
(301.987,1178.94,o),
(301.987,1155.693,cs),
(301.987,1132.445,o),
(279.542,1114.81,o),
(210.601,1105.992,c),
(234.646,1049.751,l)
);
}
);
width = 556;
},
{
anchors = (
{
name = _top;
pos = (243,758);
},
{
name = top;
pos = (243,1334);
}
);
layerId = "C85E24C5-F5D5-436B-96A2-CB17661C75AE";
shapes = (
{
closed = 1;
nodes = (
(137,853,l),
(166,879,o),
(200,917,o),
(242,959,c),
(282,917,o),
(316,877,o),
(347,853,c),
(419,853,l),
(419,865,l),
(379,922,o),
(331,991,o),
(297,1037,c),
(188,1037,l),
(157,991,o),
(103,922,o),
(66,865,c),
(66,853,l)
);
},
{
closed = 1;
nodes = (
(305.424,1085.655,o),
(341.402,1143.388,o),
(341.402,1183.754,cs),
(341.402,1253.078,o),
(295.771,1285.199,o),
(205.734,1285.199,cs),
(186.428,1285.199,o),
(164.49,1284.322,o),
(153.96,1279.934,c),
(153.96,1215.875,l),
(167.123,1218.508,o),
(189.061,1222.018,o),
(216.794,1222.018,cs),
(244.875,1222.018,o),
(270.323,1216.753,o),
(270.323,1184.284,cs),
(270.323,1147.428,o),
(230.834,1136.021,o),
(176.428,1130.756,c),
(199.244,1087.757,l)
);
}
);
width = 485;
},
{
anchors = (
{
name = _top;
pos = (212,758);
},
{
name = top;
pos = (212,1302);
}
);
layerId = "953CDB83-177D-4B72-9B41-8425D0D02E2F";
shapes = (
{
closed = 1;
nodes = (
(97.356,853,l),
(128.114,886,o),
(170.057,936,o),
(212,978,c),
(252.079,936,o),
(292.158,886,o),
(324.78,853,c),
(366.723,853,l),
(366.723,863,l),
(319.188,925,o),
(269.788,991,o),
(239.962,1036,c),
(186.834,1036,l),
(152.348,991,o),
(96.424,912,o),
(57.277,863,c),
(57.277,853,l)
);
},
{
closed = 1;
nodes = (
(261.723,1082.562,o),
(301.286,1125.232,o),
(301.286,1169.095,cs),
(301.286,1228.439,o),
(253.123,1268.002,o),
(173.997,1268.002,cs),
(152.496,1268.002,o),
(135.295,1267.142,o),
(122.394,1263.702,c),
(122.394,1223.279,l),
(137.015,1228.439,o),
(154.216,1228.439,o),
(175.717,1228.439,cs),
(225.601,1228.439,o),
(258.283,1209.518,o),
(258.283,1170.815,cs),
(258.283,1132.973,o),
(216.14,1114.912,o),
(155.936,1113.191,c),
(166.706,1079.122,l)
);
}
);
width = 424;
}
);
}
{
glyphname = circumflexcomb_hookabovecomb;
layers = (
{
anchors = (
{
name = _top;
pos = (285,580);
},
{
name = top;
pos = (280,1109);
}
);
layerId = "9E010061-AAF6-435A-AC72-EA6F5DDC7760";
shapes = (
{
closed = 1;
nodes = (
(185.011,675,l),
(210.824,695.593,o),
(242.01,737.825,o),
(278.718,772.743,c),
(314.532,737.825,o),
(359.299,695.593,o),
(386.008,675,c),
(479.123,675,l),
(479.123,687.535,l),
(448.833,725.139,o),
(388.845,792.289,o),
(360.194,840.638,c),
(200.824,840.638,l),
(174.859,800.347,o),
(132.034,735.883,o),
(91,687.535,c),
(91,675,l)
);
},
{
closed = 1;
nodes = (
(348.482,885.936,o),
(385.357,928.793,o),
(385.357,983.304,cs),
(385.357,1047.435,o),
(333.251,1085.913,o),
(246.675,1085.913,cs),
(221.023,1085.913,o),
(200.18,1081.905,o),
(184.949,1077.897,c),
(184.949,1000.138,l),
(201.784,1004.948,o),
(227.436,1008.155,o),
(246.675,1008.155,cs),
(286.756,1008.155,o),
(301.987,1000.94,o),
(301.987,977.693,cs),
(301.987,954.445,o),
(279.542,936.81,o),
(210.601,927.992,c),
(234.646,871.751,l)
);
}
);
width = 556;
},
{
anchors = (
{
name = _top;
pos = (243,570);
},
{
name = top;
pos = (243,1146);
}
);
layerId = "C85E24C5-F5D5-436B-96A2-CB17661C75AE";
shapes = (
{
closed = 1;
nodes = (
(137,698,l),
(166,724,o),
(200,762,o),
(242,804,c),
(282,762,o),
(316,722,o),
(347,698,c),
(419,698,l),
(419,710,l),
(379,767,o),
(331,836,o),
(297,882,c),
(188,882,l),
(157,836,o),
(103,767,o),
(66,710,c),
(66,698,l)
);
},
{
closed = 1;
nodes = (
(305.424,930.655,o),
(341.402,988.388,o),
(341.402,1028.754,cs),
(341.402,1098.078,o),
(295.771,1130.199,o),
(205.734,1130.199,cs),
(186.428,1130.199,o),
(164.49,1129.322,o),
(153.96,1124.934,c),
(153.96,1060.875,l),
(167.123,1063.508,o),
(189.061,1067.018,o),
(216.794,1067.018,cs),
(244.875,1067.018,o),
(270.323,1061.753,o),
(270.323,1029.284,cs),
(270.323,992.428,o),
(230.834,981.021,o),
(176.428,975.756,c),
(199.244,932.757,l)
);
}
);
width = 485;
},
{
anchors = (
{
name = _top;
pos = (212,563);
},
{
name = top;
pos = (212,1124);
}
);
layerId = "953CDB83-177D-4B72-9B41-8425D0D02E2F";
shapes = (
{
closed = 1;
nodes = (
(97.356,658,l),
(128.114,691,o),
(170.057,741,o),
(212,783,c),
(252.079,741,o),
(292.158,691,o),
(324.78,658,c),
(366.723,658,l),
(366.723,668,l),
(319.188,730,o),
(269.788,796,o),
(239.962,841,c),
(186.834,841,l),
(152.348,796,o),
(96.424,717,o),
(57.277,668,c),
(57.277,658,l)
);
},
{
closed = 1;
nodes = (
(261.723,887.562,o),
(301.286,930.232,o),
(301.286,974.095,cs),
(301.286,1033.439,o),
(253.123,1073.002,o),
(173.997,1073.002,cs),
(152.496,1073.002,o),
(135.295,1072.142,o),
(122.394,1068.702,c),
(122.394,1028.279,l),
(137.015,1033.439,o),
(154.216,1033.439,o),
(175.717,1033.439,cs),
(225.601,1033.439,o),
(258.283,1014.518,o),
(258.283,975.815,cs),
(258.283,937.973,o),
(216.14,919.912,o),
(155.936,918.191,c),
(166.706,884.122,l)
);
}
);
width = 424;
}
);
}
{
glyphname = circumflexcomb_tildecomb.case;
layers = (
{
anchors = (
{
name = _top;
pos = (280,758);
},
{
name = top;
pos = (280,1184);
}
);
layerId = "9E010061-AAF6-435A-AC72-EA6F5DDC7760";
shapes = (
{
closed = 1;
nodes = (
(185.011,853.172,l),
(210.824,873.765,o),
(242.01,915.997,o),
(278.718,950.915,c),
(314.532,915.997,o),
(359.299,873.765,o),
(386.008,853.172,c),
(479.123,853.172,l),
(479.123,865.707,l),
(448.833,903.311,o),
(388.845,970.461,o),
(360.194,1018.81,c),
(200.824,1018.81,l),
(174.859,978.519,o),
(132.034,914.055,o),
(91,865.707,c),
(91,853.172,l)
);
},
{
closed = 1;
nodes = (
(180.09,1061.172,l),
(187.34,1095.045,o),
(202.565,1113.22,o),
(222.864,1113.22,cs),
(274.913,1113.22,o),
(283.037,1061.998,o),
(341.611,1061.998,cs),
(395.985,1061.998,o),
(440.933,1109.09,o),
(447.458,1200.794,c),
(381.635,1200.794,l),
(374.385,1166.095,o),
(356.26,1151.224,o),
(338.861,1151.224,cs),
(289.712,1151.224,o),
(279.413,1199.142,o),
(220.114,1199.142,cs),
(162.115,1199.142,o),
(120.067,1152.877,o),
(113.542,1061.172,c)
);
}
);
width = 556;
},
{
anchors = (
{
name = _top;
pos = (243,758);
},
{
name = top;
pos = (243,1252);
}
);
layerId = "C85E24C5-F5D5-436B-96A2-CB17661C75AE";
shapes = (
{
closed = 1;
nodes = (
(137,853,l),
(166,879,o),
(200,917,o),
(242,959,c),
(282,917,o),
(316,877,o),
(347,853,c),
(419,853,l),
(419,865,l),
(379,922,o),
(331,991,o),
(297,1037,c),
(188,1037,l),
(157,991,o),
(103,922,o),
(66,865,c),
(66,853,l)
);
},
{
closed = 1;
nodes = (
(135.629,1080,l),
(144.014,1118.004,o),
(157.736,1135.353,o),
(184.418,1135.353,cs),
(229.397,1135.353,o),
(243.881,1081.652,o),
(298.77,1081.652,cs),
(353.659,1081.652,o),
(398.726,1127.092,o),
(406.35,1203.099,c),
(352.134,1203.099,l),
(343.748,1165.922,o),
(328.501,1146.92,o),
(303.344,1146.92,cs),
(259.89,1146.92,o),
(243.881,1203.099,o),
(187.468,1203.099,cs),
(132.579,1203.099,o),
(87.511,1157.66,o),
(80.65,1080,c)
);
}
);
width = 485;
},
{
anchors = (
{
name = _top;
pos = (212,758);
},
{
name = top;
pos = (212,1250);
}
);
layerId = "953CDB83-177D-4B72-9B41-8425D0D02E2F";
shapes = (
{
closed = 1;
nodes = (
(97.356,853,l),
(128.114,886,o),
(170.057,936,o),
(212,978,c),
(252.079,936,o),
(292.158,886,o),
(324.78,853,c),
(366.723,853,l),
(366.723,863,l),
(319.188,925,o),
(269.788,991,o),
(239.962,1036,c),
(186.834,1036,l),
(152.348,991,o),
(96.424,912,o),
(57.277,863,c),
(57.277,853,l)
);
},
{
closed = 1;
nodes = (
(112.447,1085,l),
(110.843,1128.454,o),
(139.129,1143.7,o),
(154.297,1143.7,cs),
(202.325,1143.7,o),
(210.71,1085,o),
(266.361,1085,cs),
(315.913,1085,o),
(359.165,1129.295,o),
(356.798,1200.272,c),
(314.31,1200.272,l),
(315.913,1146.829,o),
(286.102,1131.582,o),
(270.173,1131.582,cs),
(223.669,1131.582,o),
(212.997,1192.57,o),
(156.584,1192.57,cs),
(117.021,1192.57,o),
(68.835,1167.492,o),
(71.202,1085,c)
);
}
);
width = 424;
}
);
}
{
glyphname = circumflexcomb_tildecomb;
layers = (
{
anchors = (
{
name = _top;
pos = (280,580);
},
{
name = top;
pos = (280,1046);
}
);
layerId = "9E010061-AAF6-435A-AC72-EA6F5DDC7760";
shapes = (
{
closed = 1;
nodes = (
(185.011,675,l),
(210.824,695.593,o),
(242.01,737.825,o),
(278.718,772.743,c),
(314.532,737.825,o),
(359.299,695.593,o),
(386.008,675,c),
(479.123,675,l),
(479.123,687.535,l),
(448.833,725.139,o),
(388.845,792.289,o),
(360.194,840.638,c),
(200.824,840.638,l),
(174.859,800.347,o),
(132.034,735.883,o),
(91,687.535,c),
(91,675,l)
);
},
{
closed = 1;
nodes = (
(180.09,883,l),
(187.34,916.873,o),
(202.565,935.049,o),
(222.864,935.049,cs),
(274.913,935.049,o),
(283.037,883.826,o),
(341.611,883.826,cs),
(395.985,883.826,o),
(440.933,930.918,o),
(447.458,1022.622,c),
(381.635,1022.622,l),
(374.385,987.923,o),
(356.26,973.052,o),
(338.861,973.052,cs),
(289.712,973.052,o),
(279.413,1020.97,o),
(220.114,1020.97,cs),
(162.115,1020.97,o),
(120.067,974.705,o),
(113.542,883,c)
);
}
);
width = 556;
},
{
anchors = (
{
name = _top;
pos = (243,580);
},
{
name = top;
pos = (243,1114);
}
);
layerId = "C85E24C5-F5D5-436B-96A2-CB17661C75AE";
shapes = (
{
closed = 1;
nodes = (
(137,698,l),
(166,724,o),
(200,762,o),
(242,804,c),
(282,762,o),
(316,722,o),
(347,698,c),
(419,698,l),
(419,710,l),
(379,767,o),
(331,836,o),
(297,882,c),
(188,882,l),
(157,836,o),
(103,767,o),
(66,710,c),
(66,698,l)
);
},
{
closed = 1;
nodes = (
(135.629,945,l),
(144.014,983.004,o),
(157.736,1000.353,o),
(184.418,1000.353,cs),
(229.397,1000.353,o),
(243.881,946.652,o),
(298.77,946.652,cs),
(353.659,946.652,o),
(398.726,992.092,o),
(406.35,1068.099,c),
(352.134,1068.099,l),
(343.748,1030.922,o),
(328.501,1011.92,o),
(303.344,1011.92,cs),
(259.89,1011.92,o),
(243.881,1068.099,o),
(187.468,1068.099,cs),
(132.579,1068.099,o),
(87.511,1022.66,o),
(80.65,945,c)
);
}
);
width = 485;
},
{
anchors = (
{
name = _top;
pos = (212,563);
},
{
name = top;
pos = (212,1072);
}
);
layerId = "953CDB83-177D-4B72-9B41-8425D0D02E2F";
shapes = (
{
closed = 1;
nodes = (
(97.356,648,l),
(128.114,681,o),
(170.057,731,o),
(212,773,c),
(252.079,731,o),
(292.158,681,o),
(324.78,648,c),
(366.723,648,l),
(366.723,658,l),
(319.188,720,o),
(269.788,786,o),
(239.962,831,c),
(186.834,831,l),
(152.348,786,o),
(96.424,707,o),
(57.277,658,c),
(57.277,648,l)
);
},
{
closed = 1;
nodes = (
(112.447,920,l),
(110.843,963.454,o),
(139.129,978.7,o),
(154.297,978.7,cs),
(202.325,978.7,o),
(210.71,920,o),
(266.361,920,cs),
(315.913,920,o),
(359.165,964.295,o),
(356.798,1035.272,c),
(314.31,1035.272,l),
(315.913,981.829,o),
(286.102,966.582,o),
(270.173,966.582,cs),
(223.669,966.582,o),
(212.997,1027.57,o),
(156.584,1027.57,cs),
(117.021,1027.57,o),
(68.835,1002.492,o),
(71.202,920,c)
);
}
);
width = 424;
}
);
}
{
glyphname = dblgravecomb.case;
layers = (
{
anchors = (
{
name = _top;
pos = (365,580);
},
{
name = top;
pos = (264,882);
}
);
layerId = "9E010061-AAF6-435A-AC72-EA6F5DDC7760";
shapes = (
{
closed = 1;
nodes = (
(292,671,l),
(292,685,l),
(269,728,o),
(241,796,o),
(200,856,c),
(44,856,l),
(44,844,l),
(83,802,o),
(157,713,o),
(202,671,c)
);
},
{
closed = 1;
nodes = (
(504,671,l),
(504,685,l),
(481,728,o),
(452,796,o),
(411,856,c),
(255,856,l),
(255,844,l),
(295,802,o),
(368,713,o),
(412,671,c)
);
}
);
width = 548;
},
{
anchors = (
{
name = _top;
pos = (314,580);
},
{
name = top;
pos = (248,882);
}
);
layerId = "C85E24C5-F5D5-436B-96A2-CB17661C75AE";
shapes = (
{
closed = 1;
nodes = (
(273,671,l),
(273,684,l),
(251,724,o),
(207,788,o),
(167,856,c),
(44,856,l),
(44,844,l),
(83,790,o),
(154,723,o),
(202,671,c)
);
},
{
closed = 1;
nodes = (
(453,671,l),
(453,684,l),
(430,724,o),
(394,788,o),
(353,856,c),
(235,856,l),
(235,844,l),
(276,790,o),
(333,723,o),
(381,671,c)
);
}
);
width = 497;
},
{
anchors = (
{
name = _top;
pos = (280,564);
},
{
name = top;
pos = (209,882);
}
);
layerId = "953CDB83-177D-4B72-9B41-8425D0D02E2F";
shapes = (
{
closed = 1;
nodes = (
(230,671,l),
(230,682,l),
(194,733,o),
(149,807,o),
(115,856,c),
(44,856,l),
(44,845,l),
(84,794,o),
(138,724,o),
(186,671,c)
);
},
{
closed = 1;
nodes = (
(386,671,l),
(386,682,l),
(350,733,o),
(316,807,o),
(284,856,c),
(212,856,l),
(212,845,l),
(253,794,o),
(294,724,o),
(342,671,c)
);
}
);
width = 430;
}
);
metricLeft = hyphen;
metricRight = "=|";
}
{
color = 9;
glyphname = periodcentered.loclCAT.case;
layers = (
{
layerId = "9E010061-AAF6-435A-AC72-EA6F5DDC7760";
shapes = (
{
closed = 1;
nodes = (
(160,287,o),
(201,312,o),
(201,376,cs),
(201,443,o),
(160,464,o),
(112,464,cs),
(59,464,o),
(20,443,o),
(20,376,cs),
(20,313,o),
(59,287,o),
(112,287,cs)
);
}
);
width = 221;
},
{
layerId = "C85E24C5-F5D5-436B-96A2-CB17661C75AE";
shapes = (
{
closed = 1;
nodes = (
(129,300,o),
(163,323,o),
(163,376,cs),
(163,432,o),
(129,453,o),
(91,453,cs),
(52,453,o),
(20,432,o),
(20,376,cs),
(20,323,o),
(52,300,o),
(91,300,cs)
);
}
);
width = 183;
},
{
layerId = "953CDB83-177D-4B72-9B41-8425D0D02E2F";
shapes = (
{
closed = 1;
nodes = (
(99,320,o),
(117,338,o),
(117,375,cs),
(117,411,o),
(99,429,o),
(67,429,cs),
(39,429,o),
(20,411,o),
(20,375,cs),
(20,338,o),
(39,320,o),
(67,320,cs)
);
}
);
width = 137;
}
);
}
{
color = 9;
glyphname = periodcentered.loclCAT;
layers = (
{
layerId = "9E010061-AAF6-435A-AC72-EA6F5DDC7760";
shapes = (
{
closed = 1;
nodes = (
(160,308,o),
(201,334,o),
(201,399,cs),
(201,463,o),
(160,487,o),
(112,487,cs),
(59,487,o),
(20,463,o),
(20,399,cs),
(20,335,o),
(59,308,o),
(112,308,cs)
);
}
);
width = 221;
},
{
layerId = "C85E24C5-F5D5-436B-96A2-CB17661C75AE";
shapes = (
{
closed = 1;
nodes = (
(129,297,o),
(163,320,o),
(163,374,cs),
(163,430,o),
(129,449,o),
(91,449,cs),
(52,449,o),
(20,430,o),
(20,374,cs),
(20,320,o),
(52,297,o),
(91,297,cs)
);
}
);
width = 183;
},
{
layerId = "953CDB83-177D-4B72-9B41-8425D0D02E2F";
shapes = (
{
closed = 1;
nodes = (
(99,373,o),
(117,392,o),
(117,427,cs),
(117,465,o),
(99,483,o),
(67,483,cs),
(39,483,o),
(20,465,o),
(20,427,cs),
(20,392,o),
(39,373,o),
(67,373,cs)
);
}
);
width = 137;
}
);
}
{
glyphname = tildecomb.case;
layers = (
{
anchors = (
{
name = _top;
pos = (274,580);
},
{
name = top;
pos = (274,784);
}
);
layerId = "9E010061-AAF6-435A-AC72-EA6F5DDC7760";
shapes = (
{
closed = 1;
nodes = (
(136,661,l),
(146,702,o),
(167,724,o),
(195,724,cs),
(253,724,o),
(278,662,o),
(345,662,cs),
(420,662,o),
(482,719,o),
(491,830,c),
(414,830,l),
(404,788,o),
(379,770,o),
(355,770,cs),
(301,770,o),
(273,828,o),
(205,828,cs),
(125,828,o),
(67,772,o),
(58,661,c)
);
}
);
vertWidth = 1357.3098;
width = 547;
},
{
anchors = (
{
name = _top;
pos = (243,563);
},
{
name = top;
pos = (243,754);
}
);
layerId = "953CDB83-177D-4B72-9B41-8425D0D02E2F";
shapes = (
{
closed = 1;
nodes = (
(100,652,l),
(110,709,o),
(135,729,o),
(167,729,cs),
(230,729,o),
(241,652,o),
(314,652,cs),
(379,652,o),
(420,698,o),
(429,779,c),
(389,779,l),
(379,721,o),
(352,701,o),
(319,701,cs),
(258,701,o),
(244,781,o),
(170,781,cs),
(106,781,o),
(67,736,o),
(58,652,c)
);
}
);
vertWidth = 770.3388;
width = 486;
},
{
anchors = (
{
name = _top;
pos = (258,570);
},
{
name = top;
pos = (258,762);
}
);
layerId = "C85E24C5-F5D5-436B-96A2-CB17661C75AE";
shapes = (
{
closed = 1;
nodes = (
(117,663,l),
(128,709,o),
(146,730,o),
(181,730,cs),
(240,730,o),
(259,665,o),
(331,665,cs),
(403,665,o),
(449,720,o),
(459,812,c),
(401,812,l),
(390,767,o),
(370,744,o),
(337,744,cs),
(280,744,o),
(259,812,o),
(185,812,cs),
(113,812,o),
(67,757,o),
(58,663,c)
);
}
);
vertWidth = 207.6228;
width = 515;
}
);
note = tilde;
userData = {
KernOnSpecialSpacing = {
L = NoKerning;
R = NoKerning;
};
};
}
